<svg id="OBJECTS" xmlns="http://www.w3.org/2000/svg" viewBox="0 0 231.039 231.156"><defs><style>.cls-1{fill:#c4cef1}</style></defs><path class="cls-1" d="M115.517 231.156h-.009a.482.482 0 0 1-.482-.482.646.646 0 0 1 1.239 0 .478.478 0 0 1-.478.482h-.009a.478.478 0 0 1-.128-.017.507.507 0 0 1-.133.017Zm-7.684-.252a.566.566 0 0 1-.126-.015.488.488 0 1 1 .126.011Zm15.63-.017a.482.482 0 0 1-.117-.951.5.5 0 0 1 .609.467.483.483 0 0 1-.436.48Zm-23.282-.743a.559.559 0 0 1-.126-.015.488.488 0 1 1 .126.015Zm30.932-.035a.482.482 0 0 1-.117-.951.5.5 0 0 1 .609.467.483.483 0 0 1-.436.48ZM92.6 228.875a.474.474 0 0 1-.1-.009.484.484 0 0 1-.4-.475.5.5 0 0 1 .644-.456.482.482 0 0 1-.144.94Zm46.1-.053a.487.487 0 1 1 .162-.026.556.556 0 0 1-.169.026Zm-53.7-1.74a.483.483 0 0 1 .234-.936Zm61.181-.052a.482.482 0 0 1-.117-.951.488.488 0 0 1 .585.332.478.478 0 0 1-.306.592l-.045.013a.492.492 0 0 1-.128.014Zm-68.526-2.223a.483.483 0 0 1 .234-.936Zm75.866-.07a.482.482 0 0 1-.117-.951.488.488 0 0 1 .585.332.479.479 0 0 1-.306.592l-.045.013a.5.5 0 0 1-.127.014Zm-82.926-2.682a.48.48 0 0 1-.153-.024.6.6 0 0 1-.123-.06.485.485 0 1 1 .266.084Zm90.085-.093a.482.482 0 0 1-.268-.884.6.6 0 0 1 .123-.06.483.483 0 1 1 .135.944Zm-97.08-3.15a.473.473 0 0 1-.234-.061.482.482 0 0 1 .379-.884.6.6 0 0 1 .123.061.482.482 0 0 1-.268.884Zm104.026-.1a.489.489 0 1 1 .276-.086.6.6 0 0 1-.124.061.477.477 0 0 1-.149.024Zm-110.77-3.606a.473.473 0 0 1-.234-.061.482.482 0 0 1 .378-.884.6.6 0 0 1 .123.061.482.482 0 0 1-.267.884Zm117.5-.105a.489.489 0 1 1 .276-.086.6.6 0 0 1-.123.061.48.48 0 0 1-.153.024Zm-123.945-4.032a.548.548 0 0 1-.3-.091.61.61 0 0 1-.081-.066.482.482 0 1 1 .682-.682.444.444 0 0 1 .1.642.469.469 0 0 1-.401.197Zm130.413-.121a.482.482 0 0 1-.341-.823.61.61 0 0 1 .081-.066.482.482 0 1 1 .26.889ZM44.22 206.4a.549.549 0 0 1-.3-.09.6.6 0 0 1-.081-.066.482.482 0 1 1 .682-.682.444.444 0 0 1 .1.642.469.469 0 0 1-.401.196Zm142.78-.129a.482.482 0 0 1-.341-.823.6.6 0 0 1 .081-.066.483.483 0 1 1 .26.889Zm-148.688-4.848a.48.48 0 0 1-.267-.081.528.528 0 0 1-.141-.14.485.485 0 1 1 .408.221Zm154.551-.127a.482.482 0 0 1-.4-.75.525.525 0 0 1 .141-.14.483.483 0 1 1 .258.894Zm-160.084-5.223a.474.474 0 0 1-.336-.139l-.007-.007a.482.482 0 1 1 .682-.682.483.483 0 0 1-.339.828Zm165.6-.133a.482.482 0 0 1-.341-.823.487.487 0 0 1 .686 0 .48.48 0 0 1 0 .679l-.007.007a.481.481 0 0 1-.336.137Zm-170.755-5.567a.485.485 0 1 1 .261-.891.539.539 0 0 1 .14.141.482.482 0 0 1-.401.75Zm175.909-.144a.488.488 0 1 1 .408-.222.525.525 0 0 1-.14.141.482.482 0 0 1-.268.081Zm-180.677-5.886a.485.485 0 1 1 .335-.831.6.6 0 0 1 .066.081.482.482 0 0 1-.401.75Zm185.44-.157a.482.482 0 0 1-.341-.823.443.443 0 0 1 .641-.1.517.517 0 0 1 .106.7.6.6 0 0 1-.066.081.481.481 0 0 1-.336.141ZM18.5 178.01a.482.482 0 0 1-.4-.215.6.6 0 0 1-.061-.123.485.485 0 1 1 .461.338Zm194.147-.171a.482.482 0 0 1-.458-.635.6.6 0 0 1 .061-.123.483.483 0 1 1 .395.759ZM14.575 171.4a.482.482 0 0 1-.4-.215.6.6 0 0 1-.061-.123.485.485 0 1 1 .461.338Zm201.987-.188a.478.478 0 0 1-.153-.025.484.484 0 0 1-.305-.61.6.6 0 0 1 .061-.123.483.483 0 1 1 .397.76ZM11.1 164.55a.486.486 0 1 1 .4-.758.6.6 0 0 1 .06.123.484.484 0 0 1-.305.611.506.506 0 0 1-.155.024Zm208.925-.209a.482.482 0 0 1-.437-.686.482.482 0 0 1 .9.348.6.6 0 0 1-.06.123.482.482 0 0 1-.4.215ZM8.1 157.482a.486.486 0 1 1 .4-.758.6.6 0 0 1 .06.123.483.483 0 0 1-.305.61.5.5 0 0 1-.155.025Zm214.925-.233a.482.482 0 0 1-.431-.7.459.459 0 0 1 .6-.278.506.506 0 0 1 .294.637.682.682 0 0 1-.03.073.484.484 0 0 1-.433.269ZM5.572 150.216a.476.476 0 0 1-.454-.326c0-.012-.01-.033-.013-.045a.483.483 0 1 1 .6.351.5.5 0 0 1-.133.02Zm219.965-.246a.5.5 0 0 1-.117-.014.484.484 0 0 1-.351-.585l.936.234a.482.482 0 0 1-.468.365Zm.463-.34ZM3.544 142.8a.483.483 0 0 1-.458-.33.555.555 0 0 1-.026-.162.485.485 0 1 1 .484.492Zm224.007-.255a.482.482 0 0 1-.482-.482.556.556 0 0 1 .026-.162.483.483 0 1 1 .456.646ZM2.017 135.267a.483.483 0 0 1-.458-.33.556.556 0 0 1-.026-.162.485.485 0 1 1 .484.492Zm227.044-.26a.482.482 0 0 1-.482-.482.557.557 0 0 1 .026-.162.483.483 0 1 1 .456.644ZM1 127.646a.487.487 0 1 1 .467-.609.564.564 0 0 1 .015.126.482.482 0 0 1-.482.483Zm229.066-.262a.5.5 0 0 1-.117-.014.488.488 0 0 1 .118-.96.482.482 0 0 1 .482.482.56.56 0 0 1-.015.126.482.482 0 0 1-.471.366ZM.486 119.969a.478.478 0 0 1-.486-.477v-.009a.482.482 0 1 1 .486.486Zm230.071-.258a.485.485 0 1 1 .482-.492v.009a.482.482 0 0 1-.482.483ZM.482 112.279A.478.478 0 0 1 0 111.8v-.009a.482.482 0 1 1 .482.488Zm230.062-.258a.485.485 0 1 1 .482-.492v.009a.482.482 0 0 1-.482.483ZM.983 104.611a.482.482 0 0 1-.483-.482.566.566 0 0 1 .016-.129.483.483 0 1 1 .467.611Zm229.041-.263a.483.483 0 0 1-.468-.366.567.567 0 0 1-.015-.126.483.483 0 1 1 .6.478.491.491 0 0 1-.116.015ZM1.993 96.988a.477.477 0 0 1-.153-.025.487.487 0 1 1 .637-.463.553.553 0 0 1-.026.162.483.483 0 0 1-.458.326Zm227-.259a.487.487 0 1 1 .456-.644.556.556 0 0 1 .026.162.482.482 0 0 1-.475.482ZM3.513 89.451A.487.487 0 1 1 4 88.959a.553.553 0 0 1-.026.162.484.484 0 0 1-.461.33Zm223.949-.251a.487.487 0 1 1 .456-.644.556.556 0 0 1 .026.162.482.482 0 0 1-.482.482Zm-2.038-7.415a.482.482 0 0 1-.468-.365.487.487 0 0 1 .332-.585.476.476 0 0 1 .592.306c0 .012.01.033.013.045a.484.484 0 0 1-.351.585.5.5 0 0 1-.119.01ZM6.005 81.657l-.936-.234a.483.483 0 1 1 .936.234Zm2.054-6.872a.535.535 0 0 1-.169-.028.506.506 0 0 1-.29-.637.673.673 0 0 1 .03-.073.482.482 0 1 1 .863.431.443.443 0 0 1-.434.307Zm214.831-.263a.484.484 0 0 1-.431-.267.516.516 0 0 1 .29-.646.451.451 0 0 1 .587.245.483.483 0 0 1-.446.668ZM11.059 67.666a.506.506 0 0 1-.153-.025.484.484 0 0 1-.305-.61.6.6 0 0 1 .06-.123.483.483 0 1 1 .398.758Zm208.819-.209a.482.482 0 0 1-.4-.215.605.605 0 0 1-.06-.123.484.484 0 1 1 .46.338ZM14.533 60.8a.488.488 0 1 1 .467-.343.6.6 0 0 1-.061.123.482.482 0 0 1-.406.22Zm201.867-.193a.486.486 0 1 1 .4-.758.6.6 0 0 1 .061.123.484.484 0 0 1-.305.61.477.477 0 0 1-.156.025ZM18.456 54.176a.488.488 0 1 1 .462-.338.6.6 0 0 1-.061.123.482.482 0 0 1-.401.215ZM212.468 54a.486.486 0 1 1 .4-.758.6.6 0 0 1 .061.123.482.482 0 0 1-.461.635Zm-189.66-6.123a.5.5 0 0 1-.395-.794.6.6 0 0 1 .066-.083.482.482 0 0 1 .682.682.417.417 0 0 1-.353.195Zm185.3-.2a.48.48 0 0 1-.341-.141.6.6 0 0 1-.066-.081.483.483 0 1 1 .399.221ZM27.582 41.8a.482.482 0 0 1-.4-.75.525.525 0 0 1 .14-.141.484.484 0 1 1 .26.891Zm175.748-.144a.481.481 0 0 1-.267-.081.525.525 0 0 1-.14-.141.484.484 0 1 1 .407.217ZM32.742 36.085a.48.48 0 0 1-.343-.819l.007-.007a.482.482 0 1 1 .682.682.488.488 0 0 1-.346.144Zm165.421-.13a.481.481 0 0 1-.341-.141.488.488 0 0 1 0-.686.48.48 0 0 1 .679 0l.007.007a.482.482 0 0 1-.345.82ZM38.265 30.74a.488.488 0 1 1 .408-.221.526.526 0 0 1-.141.14.481.481 0 0 1-.267.081Zm154.364-.126a.485.485 0 1 1 .26-.89.542.542 0 0 1 .141.14.482.482 0 0 1-.4.749Zm-148.5-4.844a.488.488 0 1 1 .348-.147.6.6 0 0 1-.081.066.481.481 0 0 1-.263.08Zm142.62-.119a.481.481 0 0 1-.341-.141.444.444 0 0 1-.1-.642.515.515 0 0 1 .7-.107.6.6 0 0 1 .081.066.482.482 0 0 1-.337.824ZM50.315 21.2a.488.488 0 1 1 .348-.147.6.6 0 0 1-.081.066.481.481 0 0 1-.267.081Zm130.241-.111a.481.481 0 0 1-.341-.141.444.444 0 0 1-.1-.642.515.515 0 0 1 .7-.106.6.6 0 0 1 .081.066.482.482 0 0 1-.339.823Zm-123.77-4.032a.482.482 0 0 1-.268-.884.6.6 0 0 1 .123-.061.482.482 0 0 1 .379.888.476.476 0 0 1-.234.057Zm117.285-.107a.477.477 0 0 1-.153-.024.6.6 0 0 1-.123-.061.484.484 0 1 1 .276.085Zm-110.553-3.6a.482.482 0 0 1-.268-.884.6.6 0 0 1 .123-.061.483.483 0 1 1 .145.948Zm103.8-.1a.478.478 0 0 1-.153-.024.6.6 0 0 1-.123-.061.484.484 0 1 1 .278.088Zm-96.84-3.143a.488.488 0 1 1 .276-.085.605.605 0 0 1-.123.06.481.481 0 0 1-.152.027Zm89.855-.093a.49.49 0 0 1-.466-.639.485.485 0 0 1 .61-.305.6.6 0 0 1 .123.06.482.482 0 0 1-.265.886ZM77.649 7.338a.486.486 0 0 1-.467-.346.479.479 0 0 1 .306-.592l.045-.013a.483.483 0 0 1 .234.936.51.51 0 0 1-.118.015Zm75.5-.084a.5.5 0 0 1-.117-.014l.234-.936a.482.482 0 0 1-.12.951Zm-68.154-2.2a.486.486 0 0 1-.467-.346.48.48 0 0 1 .306-.592l.043-.016a.483.483 0 0 1 .234.936.511.511 0 0 1-.119.019Zm60.8-.067a.5.5 0 0 1-.117-.014l.234-.936a.482.482 0 0 1-.112.951ZM92.463 3.274a.482.482 0 0 1-.153-.94.5.5 0 0 1 .644.456.483.483 0 0 1-.395.475.49.49 0 0 1-.096.009Zm45.852-.052a.553.553 0 0 1-.162-.026.486.486 0 1 1 .162.026Zm-38.27-1.228a.485.485 0 1 1 .126-.015.566.566 0 0 1-.126.015Zm30.683-.034h-.056a.483.483 0 0 1-.436-.48.5.5 0 0 1 .609-.467.482.482 0 0 1-.117.947ZM107.7 1.226a.485.485 0 1 1 .126-.015.566.566 0 0 1-.126.015Zm15.381-.018h-.056a.483.483 0 0 1-.436-.48.5.5 0 0 1 .609-.467.482.482 0 0 1-.122.947Zm-7.685-.243a.486.486 0 0 1-.496-.483.478.478 0 0 1 .482-.482h.009a.482.482 0 1 1 0 .965ZM114.91 221.925a.6.6 0 0 1 .609-.6.611.611 0 0 1 .125.009.523.523 0 0 1 .125-.009.591.591 0 0 1 .608.6.618.618 0 0 1-.608.608.58.58 0 0 1-.125-.02.579.579 0 0 1-.125.02.606.606 0 0 1-.609-.608Zm-7.109.328a.605.605 0 0 1-.559-.646.6.6 0 0 1 .646-.55.59.59 0 0 1 .56.637.612.612 0 0 1-.608.569.258.258 0 0 0-.04-.01Zm15.039-.569a.6.6 0 0 1 .56-.647.6.6 0 0 1 .646.55.6.6 0 0 1-.559.646.059.059 0 0 1-.039.009.609.609 0 0 1-.608-.558Zm-22.708-.251a.6.6 0 0 1-.512-.685.6.6 0 0 1 .675-.511.6.6 0 0 1 .511.685.592.592 0 0 1-.589.511h-.087Zm30.348-.549a.6.6 0 0 1 .5-.685.6.6 0 0 1 .685.511.6.6 0 0 1-.5.685h-.087a.594.594 0 0 1-.598-.512Zm-37.949-.83a.6.6 0 0 1-.463-.714.613.613 0 0 1 .723-.463.6.6 0 0 1 .463.713.616.616 0 0 1-.589.473.643.643 0 0 1-.134-.01Zm45.5-.512a.613.613 0 0 1 .463-.724.6.6 0 0 1 .714.464.6.6 0 0 1-.453.714.664.664 0 0 1-.136.019.606.606 0 0 1-.586-.473Zm-52.978-1.408v-.009a.6.6 0 0 1-.405-.743.6.6 0 0 1 .752-.405.6.6 0 0 1 .4.743.608.608 0 0 1-.578.434 1.089 1.089 0 0 1-.167-.02Zm60.416-.482a.606.606 0 0 1 .405-.753.607.607 0 0 1 .753.406.606.606 0 0 1-.406.752.517.517 0 0 1-.173.02.607.607 0 0 1-.578-.426Zm-67.738-1.987a.6.6 0 0 1-.347-.772.6.6 0 0 1 .781-.357.606.606 0 0 1 .348.781.592.592 0 0 1-.56.386.614.614 0 0 1-.221-.038Zm75.021-.434a.6.6 0 0 1 .357-.781h-.009a.605.605 0 0 1 .781.347.606.606 0 0 1-.348.782.558.558 0 0 1-.212.039.613.613 0 0 1-.568-.388Zm-82.14-2.557a.607.607 0 0 1-.3-.8.6.6 0 0 1 .8-.289.6.6 0 0 1 .3.8.618.618 0 0 1-.549.348.564.564 0 0 1-.25-.059Zm89.23-.395a.6.6 0 0 1 .29-.8.6.6 0 0 1 .8.3.6.6 0 0 1-.289.791.633.633 0 0 1-.26.057.589.589 0 0 1-.54-.348Zm-96.117-3.107h-.008a.6.6 0 0 1-.232-.82.6.6 0 0 1 .82-.232.611.611 0 0 1 .241.82.623.623 0 0 1-.53.309.621.621 0 0 1-.29-.077Zm102.967-.337a.611.611 0 0 1 .232-.83.606.606 0 0 1 .82.241.6.6 0 0 1-.232.821.659.659 0 0 1-.3.077.6.6 0 0 1-.519-.309Zm-109.584-3.647a.617.617 0 0 1-.183-.839.606.606 0 0 1 .839-.173.6.6 0 0 1 .173.83.594.594 0 0 1-.5.28.65.65 0 0 1-.329-.098Zm116.163-.3a.6.6 0 0 1 .174-.83.606.606 0 0 1 .839.173.6.6 0 0 1-.174.83.607.607 0 0 1-.328.1.589.589 0 0 1-.511-.271ZM50.8 200.731a.6.6 0 0 1-.115-.849.6.6 0 0 1 .838-.116v.009a.589.589 0 0 1 .116.839.607.607 0 0 1-.482.241.558.558 0 0 1-.357-.124Zm128.761-.241a.6.6 0 0 1 .116-.849.592.592 0 0 1 .839.116.61.61 0 0 1-.106.849.67.67 0 0 1-.366.125.607.607 0 0 1-.483-.241Zm-134.742-4.659a.6.6 0 0 1-.049-.849.6.6 0 0 1 .85-.048.607.607 0 0 1 .057.849.617.617 0 0 1-.453.2.589.589 0 0 1-.405-.152Zm140.693-.183a.6.6 0 0 1 .057-.849.6.6 0 0 1 .85.048.607.607 0 0 1-.049.849.59.59 0 0 1-.405.154.617.617 0 0 1-.452-.202Zm-146.3-5.123a.608.608 0 0 1 .009-.858.606.606 0 0 1 .85.009.62.62 0 0 1 0 .859.621.621 0 0 1-.425.173.632.632 0 0 1-.432-.183Zm151.893-.144a.605.605 0 0 1-.009-.849.609.609 0 0 1 .858-.01.6.6 0 0 1 0 .849.567.567 0 0 1-.424.184.6.6 0 0 1-.423-.174Zm.849-.01h.01l-.01.01v-.01Zm-157.948-5.547a.607.607 0 0 1 .067-.849.607.607 0 0 1 .849.068.6.6 0 0 1-.067.849.582.582 0 0 1-.386.145.6.6 0 0 1-.463-.213Zm162.3-.087a.607.607 0 0 1-.068-.849.59.59 0 0 1 .849-.067.6.6 0 0 1 .077.849h-.009a.615.615 0 0 1-.454.212.6.6 0 0 1-.394-.145Zm-167.085-5.97a.61.61 0 0 1 .125-.839.614.614 0 0 1 .849.135v-.009a.614.614 0 0 1-.136.849.6.6 0 0 1-.356.116.589.589 0 0 1-.482-.252Zm171.88-.039a.6.6 0 0 1-.136-.839.6.6 0 0 1 .839-.135.614.614 0 0 1 .136.849v-.01a.6.6 0 0 1-.493.251.575.575 0 0 1-.347-.116ZM24.88 172.39a.618.618 0 0 1 .192-.839.607.607 0 0 1 .83.193.594.594 0 0 1-.184.83.592.592 0 0 1-.328.1.594.594 0 0 1-.51-.284Zm180.553 0a.6.6 0 0 1-.184-.83.6.6 0 0 1 .83-.192.594.594 0 0 1 .183.829h.009a.62.62 0 0 1-.52.29.578.578 0 0 1-.318-.097Zm-184.412-6.675a.6.6 0 0 1 .241-.82.6.6 0 0 1 .82.251.6.6 0 0 1-.251.81.585.585 0 0 1-.28.077.59.59 0 0 1-.53-.318Zm188.289.048a.609.609 0 0 1-.251-.82.6.6 0 0 1 .81-.251.6.6 0 0 1 .251.81.592.592 0 0 1-.53.328.7.7 0 0 1-.28-.067Zm-191.665-6.994a.6.6 0 0 1 .308-.79.6.6 0 0 1 .791.308.6.6 0 0 1-.309.791.522.522 0 0 1-.241.058.592.592 0 0 1-.549-.367Zm195.041.087a.6.6 0 0 1-.309-.79.605.605 0 0 1 .8-.309.6.6 0 0 1 .309.791.59.59 0 0 1-.559.357.565.565 0 0 1-.24-.049ZM14.78 151.612a.611.611 0 0 1 .366-.772.6.6 0 0 1 .772.367.6.6 0 0 1-.367.772.624.624 0 0 1-.2.029.624.624 0 0 1-.571-.396Zm200.782.116a.614.614 0 0 1-.367-.771.618.618 0 0 1 .772-.367.6.6 0 0 1 .366.772.6.6 0 0 1-.569.405.5.5 0 0 1-.202-.04Zm-203.107-7.477a.6.6 0 0 1 .415-.742.6.6 0 0 1 .742.424.61.61 0 0 1-.414.743 1.111 1.111 0 0 1-.164.019.589.589 0 0 1-.579-.444Zm205.46.164a.592.592 0 0 1-.424-.733.6.6 0 0 1 .742-.425.6.6 0 0 1 .415.743.608.608 0 0 1-.578.444.427.427 0 0 1-.155-.029Zm-207.254-7.669a.6.6 0 0 1 .473-.713.6.6 0 0 1 .7.472.591.591 0 0 1-.473.7.5.5 0 0 1-.116.019.606.606 0 0 1-.584-.478Zm209.058.213a.606.606 0 0 1-.473-.714v.01a.605.605 0 0 1 .7-.482.606.606 0 0 1 .473.714.6.6 0 0 1-.589.482.483.483 0 0 1-.111-.01Zm-210.3-7.833a.6.6 0 0 1 .521-.675.613.613 0 0 1 .675.521.607.607 0 0 1-.521.675h-.079a.6.6 0 0 1-.598-.521Zm211.566.26a.607.607 0 0 1-.53-.675.612.612 0 0 1 .675-.521.6.6 0 0 1 .521.675.6.6 0 0 1-.6.53c-.02.005-.051-.009-.069-.009ZM8.722 121.437a.6.6 0 0 1 .569-.636.61.61 0 0 1 .637.569.611.611 0 0 1-.57.637H9.33a.611.611 0 0 1-.608-.57Zm212.978.309a.6.6 0 0 1-.578-.637.611.611 0 0 1 .637-.569.605.605 0 0 1 .569.637.6.6 0 0 1-.6.569h-.028ZM9.175 114.329a.612.612 0 0 1-.6-.618.6.6 0 0 1 .617-.588.6.6 0 0 1 .589.617.6.6 0 0 1-.608.589Zm212.068-.85a.6.6 0 0 1 .589-.617.6.6 0 0 1 .617.589.6.6 0 0 1-.589.617h-.019a.605.605 0 0 1-.598-.589Zm-211.711-6.82a.607.607 0 0 1-.55-.659.6.6 0 0 1 .656-.54.606.606 0 0 1 .55.656v-.01a.608.608 0 0 1-.608.55h-.048Zm211.286-.8a.606.606 0 0 1 .55-.656.6.6 0 0 1 .656.54.6.6 0 0 1-.549.656c-.02 0-.029.01-.048.01a.616.616 0 0 1-.609-.55Zm-210.38-6.82a.6.6 0 0 1-.492-.694.586.586 0 0 1 .685-.492.594.594 0 0 1 .5.685v.01a.6.6 0 0 1-.589.5.408.408 0 0 1-.103-.01Zm209.415-.753a.616.616 0 0 1 .5-.694.6.6 0 0 1 .694.5.6.6 0 0 1-.5.685.341.341 0 0 1-.1.009.61.61 0 0 1-.593-.5ZM11.9 91.5a.607.607 0 0 1-.444-.724.605.605 0 0 1 .723-.454.6.6 0 0 1 .454.724.607.607 0 0 1-.589.463.757.757 0 0 1-.144-.009Zm206.454-.7h-.014a.6.6 0 0 1 .453-.724.605.605 0 0 1 .724.444.6.6 0 0 1-.444.724.366.366 0 0 1-.145.02.588.588 0 0 1-.579-.464ZM13.9 84.1a.614.614 0 0 1-.395-.762.614.614 0 0 1 .762-.395.614.614 0 0 1 .395.762.62.62 0 0 1-.578.415 1 1 0 0 1-.184-.02Zm202.393-.646a.6.6 0 0 1 .4-.752.59.59 0 0 1 .752.385.609.609 0 0 1-.385.762.64.64 0 0 1-.184.029.6.6 0 0 1-.581-.429ZM16.439 76.833a.606.606 0 0 1-.338-.782.609.609 0 0 1 .791-.337.6.6 0 0 1 .328.781.592.592 0 0 1-.56.386.667.667 0 0 1-.221-.048Zm197.28-.569a.6.6 0 0 1 .328-.782.613.613 0 0 1 .791.337.61.61 0 0 1-.338.782.652.652 0 0 1-.221.048.591.591 0 0 1-.56-.385ZM19.5 69.781a.6.6 0 0 1-.28-.8.61.61 0 0 1 .81-.28.6.6 0 0 1 .28.8.6.6 0 0 1-.541.348.536.536 0 0 1-.269-.068Zm191.123-.481a.609.609 0 0 1 .28-.81.612.612 0 0 1 .81.28.61.61 0 0 1-.28.81.635.635 0 0 1-.261.058.608.608 0 0 1-.549-.338ZM23.066 62.98a.6.6 0 0 1-.221-.83.6.6 0 0 1 .82-.212.6.6 0 0 1 .222.82.612.612 0 0 1-.521.3.633.633 0 0 1-.3-.078Zm183.968-.415a.6.6 0 0 1 .222-.82.588.588 0 0 1 .819.213.6.6 0 0 1-.212.829.7.7 0 0 1-.309.077.61.61 0 0 1-.521-.299ZM27.108 56.45a.607.607 0 0 1-.164-.839.6.6 0 0 1 .839-.164.605.605 0 0 1 .154.838.58.58 0 0 1-.493.261.6.6 0 0 1-.336-.096Zm175.864-.338a.6.6 0 0 1 .154-.839.6.6 0 0 1 .839.154.61.61 0 0 1-.155.839.566.566 0 0 1-.347.106.62.62 0 0 1-.491-.26ZM31.6 50.228a.61.61 0 0 1-.1-.849.611.611 0 0 1 .85-.106.6.6 0 0 1 .1.849.594.594 0 0 1-.473.232.629.629 0 0 1-.377-.126Zm166.845-.27a.59.59 0 0 1 .1-.839.592.592 0 0 1 .849.1.61.61 0 0 1-.1.849.609.609 0 0 1-.376.125.593.593 0 0 1-.469-.236ZM36.543 44.343a.606.606 0 0 1-.039-.849.6.6 0 0 1 .858-.039.605.605 0 0 1 .039.849h-.01a.6.6 0 0 1-.444.193.59.59 0 0 1-.404-.154ZM193.5 44.15a.6.6 0 0 1 .028-.85.61.61 0 0 1 .859.039.6.6 0 0 1-.039.85.6.6 0 0 1-.405.153.573.573 0 0 1-.443-.192ZM41.9 38.835a.608.608 0 0 1 .019-.858.6.6 0 0 1 .849.019.609.609 0 0 1-.019.859.63.63 0 0 1-.414.164.577.577 0 0 1-.435-.184Zm146.24-.125a.6.6 0 0 1-.019-.849.606.606 0 0 1 .849-.029.619.619 0 0 1 .029.859.612.612 0 0 1-.444.183.583.583 0 0 1-.419-.165ZM47.616 33.722a.6.6 0 0 1 .087-.849.609.609 0 0 1 .849.077.6.6 0 0 1-.087.849.591.591 0 0 1-.385.135.583.583 0 0 1-.464-.212Zm134.791-.048v-.009a.588.588 0 0 1-.087-.839.6.6 0 0 1 .849-.087.6.6 0 0 1 .087.849.6.6 0 0 1-.473.221.642.642 0 0 1-.376-.135Zm-128.714-4.65a.6.6 0 0 1 .145-.839v.015a.593.593 0 0 1 .839.135.614.614 0 0 1-.145.849.633.633 0 0 1-.347.107.592.592 0 0 1-.492-.267Zm122.626.029h.01a.6.6 0 0 1-.155-.839.6.6 0 0 1 .839-.145.6.6 0 0 1 .153.839.625.625 0 0 1-.5.252.589.589 0 0 1-.347-.107ZM60.09 24.79a.609.609 0 0 1 .2-.83v.009a.6.6 0 0 1 .829.2.587.587 0 0 1-.2.82.6.6 0 0 1-.309.087.6.6 0 0 1-.52-.286Zm109.834.1a.609.609 0 0 1-.2-.829.6.6 0 0 1 .83-.2v-.01a.61.61 0 0 1 .2.83.61.61 0 0 1-.521.3.6.6 0 0 1-.309-.095Zm-103.15-3.863a.605.605 0 0 1 .27-.81.6.6 0 0 1 .81.261.607.607 0 0 1-.27.81.535.535 0 0 1-.27.067.594.594 0 0 1-.54-.328Zm96.465.154v.009a.608.608 0 0 1-.261-.82.6.6 0 0 1 .8-.261.609.609 0 0 1 .27.811.6.6 0 0 1-.54.328.562.562 0 0 1-.269-.066ZM73.71 17.757a.607.607 0 0 1 .329-.791.6.6 0 0 1 .79.318.607.607 0 0 1-.328.791.658.658 0 0 1-.232.048.618.618 0 0 1-.559-.366Zm82.59.222a.6.6 0 0 1-.328-.781.61.61 0 0 1 .791-.328.608.608 0 0 1 .328.791.608.608 0 0 1-.56.366.5.5 0 0 1-.231-.048ZM80.867 15a.6.6 0 0 1 .377-.762.6.6 0 0 1 .762.377.6.6 0 0 1-.377.762.633.633 0 0 1-.192.028.6.6 0 0 1-.57-.405Zm68.287.289a.6.6 0 0 1-.385-.761.6.6 0 0 1 .762-.377.6.6 0 0 1 .385.762.62.62 0 0 1-.578.415.419.419 0 0 1-.183-.041Zm-60.936-2.528a.6.6 0 0 1 .425-.734.6.6 0 0 1 .733.434.6.6 0 0 1-.424.733.443.443 0 0 1-.154.02.6.6 0 0 1-.58-.453Zm53.615.367a.6.6 0 0 1-.444-.734.62.62 0 0 1 .743-.433.614.614 0 0 1 .434.733.606.606 0 0 1-.589.453.386.386 0 0 1-.144-.02ZM95.7 11.073a.6.6 0 0 1 .482-.7.609.609 0 0 1 .7.482.611.611 0 0 1-.492.7.408.408 0 0 1-.106.009.591.591 0 0 1-.584-.491Zm38.663.433a.6.6 0 0 1-.482-.694.61.61 0 0 1 .7-.492.6.6 0 0 1 .482.7.6.6 0 0 1-.589.493.427.427 0 0 1-.106-.007Zm-31.077-1.582a.6.6 0 0 1 .541-.666.606.606 0 0 1 .665.531.606.606 0 0 1-.54.665h-.058a.606.606 0 0 1-.608-.53Zm23.528.5a.6.6 0 0 1-.531-.666.591.591 0 0 1 .657-.53.59.59 0 0 1 .54.656.613.613 0 0 1-.6.55c-.018.002-.037-.008-.066-.008Zm-15.869-1.1a.591.591 0 0 1 .578-.626.616.616 0 0 1 .627.578.613.613 0 0 1-.589.627h-.019a.6.6 0 0 1-.596-.577Zm8.255.576a.6.6 0 0 1-.588-.626.616.616 0 0 1 .627-.579.6.6 0 0 1 .579.627.6.6 0 0 1-.6.578h-.018ZM115.633 213.89a.475.475 0 0 1-.115.009.714.714 0 0 1-.724-.714.716.716 0 0 1 .724-.723.475.475 0 0 1 .115.009.5.5 0 0 1 .126-.019.729.729 0 0 1 .724.724.723.723 0 0 1-.724.724.621.621 0 0 1-.126-.01Zm-7.832-.29.01.01a.719.719 0 0 1-.666-.782.722.722 0 0 1 .772-.665.731.731 0 0 1 .666.781.724.724 0 0 1-.714.666.172.172 0 0 1-.069-.01Zm14.894-.674a.713.713 0 0 1 .656-.782.725.725 0 0 1 .782.666.73.73 0 0 1-.666.781h-.058a.723.723 0 0 1-.714-.666Zm-22.553-.213a.733.733 0 0 1-.608-.829.735.735 0 0 1 .83-.608.735.735 0 0 1 .608.829.733.733 0 0 1-.714.618c-.039 0-.078-.011-.117-.011Zm30.164-.646a.721.721 0 0 1 .6-.829v.009a.721.721 0 0 1 .83.6.72.72 0 0 1-.6.829c-.039 0-.077.01-.116.01a.725.725 0 0 1-.715-.62Zm-37.736-.858a.728.728 0 0 1-.541-.868.73.73 0 0 1 .878-.53.714.714 0 0 1 .53.869.721.721 0 0 1-.7.549.515.515 0 0 1-.168-.021Zm45.261-.589a.713.713 0 0 1 .53-.868.729.729 0 0 1 .878.53.72.72 0 0 1-.541.868v.01a.863.863 0 0 1-.164.019.719.719 0 0 1-.704-.56Zm-52.689-1.5a.72.72 0 0 1-.463-.917.718.718 0 0 1 .907-.463.721.721 0 0 1 .462.906.711.711 0 0 1-.685.5.8.8 0 0 1-.222-.022Zm60.068-.54a.739.739 0 0 1 .463-.917.737.737 0 0 1 .917.463.729.729 0 0 1-.464.917.627.627 0 0 1-.221.039.734.734 0 0 1-.696-.498Zm-67.323-2.132a.724.724 0 0 1-.385-.946.716.716 0 0 1 .945-.4.724.724 0 0 1 .386.946.72.72 0 0 1-.666.444.974.974 0 0 1-.28-.04Zm74.519-.482a.72.72 0 0 1 .4-.946.724.724 0 0 1 .946.386.72.72 0 0 1-.4.945.683.683 0 0 1-.27.058.723.723 0 0 1-.676-.439Zm-81.531-2.759a.72.72 0 0 1-.309-.974.72.72 0 0 1 .974-.318.727.727 0 0 1 .309.974.716.716 0 0 1-.646.4.683.683 0 0 1-.329-.078Zm88.5-.414a.732.732 0 0 1 .318-.975.724.724 0 0 1 .974.319.732.732 0 0 1-.309.975.824.824 0 0 1-.337.076.736.736 0 0 1-.65-.388Zm-95.235-3.364a.733.733 0 0 1-.241-.994.742.742 0 0 1 1-.241.73.73 0 0 1 .232 1 .716.716 0 0 1-.617.337.677.677 0 0 1-.374-.102Zm101.934-.348a.722.722 0 0 1 .232-.994.733.733 0 0 1 1 .232.741.741 0 0 1-.241 1 .763.763 0 0 1-.376.106.728.728 0 0 1-.614-.343Zm-108.348-3.944a.727.727 0 0 1-.164-1.013.725.725 0 0 1 1.013-.154.714.714 0 0 1 .164 1 .714.714 0 0 1-.589.3.676.676 0 0 1-.424-.133Zm114.734-.28a.715.715 0 0 1 .164-1 .7.7 0 0 1 1 .155.716.716 0 0 1-.154 1.013.762.762 0 0 1-.424.136.741.741 0 0 1-.585-.304Zm-120.8-4.5a.728.728 0 0 1-.077-1.022.728.728 0 0 1 1.022-.077.728.728 0 0 1 .077 1.022.733.733 0 0 1-.549.251.75.75 0 0 1-.475-.179Zm126.842-.2a.729.729 0 0 1 .076-1.022h.01a.71.71 0 0 1 1.013.076.72.72 0 0 1-.077 1.014.678.678 0 0 1-.473.183.733.733 0 0 1-.551-.259ZM46 185.114a.728.728 0 0 1 0-1.023.711.711 0 0 1 1.022 0 .728.728 0 0 1 0 1.023.757.757 0 0 1-.511.212.74.74 0 0 1-.511-.212Zm138.156-.145a.727.727 0 0 1 0-1.022.728.728 0 0 1 1.023 0 .719.719 0 0 1 0 1.022.7.7 0 0 1-.511.212.714.714 0 0 1-.516-.212Zm-143.398-5.527h-.01a.72.72 0 0 1 .087-1.014.723.723 0 0 1 1.023.077.719.719 0 0 1-.087 1.013.672.672 0 0 1-.463.184.684.684 0 0 1-.55-.26Zm148.632-.068a.723.723 0 0 1-.087-1.023.731.731 0 0 1 1.023-.076.722.722 0 0 1 .087 1.022.737.737 0 0 1-.55.251.718.718 0 0 1-.473-.174Zm-153.416-5.99a.721.721 0 0 1 .154-1 .724.724 0 0 1 1.014.155.723.723 0 0 1-.154 1.013.719.719 0 0 1-.425.135.687.687 0 0 1-.589-.303Zm158.2 0a.724.724 0 0 1-.165-1.013.734.734 0 0 1 1.014-.164.725.725 0 0 1 .154 1.013.707.707 0 0 1-.578.3.676.676 0 0 1-.423-.136Zm-162.493-6.406a.716.716 0 0 1 .231-.993.716.716 0 0 1 .994.232.718.718 0 0 1-.232.993.673.673 0 0 1-.376.107.705.705 0 0 1-.617-.339Zm166.787.058a.731.731 0 0 1-.241-.994.734.734 0 0 1 1-.241.721.721 0 0 1 .232.994.716.716 0 0 1-.617.348.766.766 0 0 1-.374-.106ZM27.9 160.245a.725.725 0 0 1 .318-.974.731.731 0 0 1 .974.318.732.732 0 0 1-.318.974.688.688 0 0 1-.328.077.726.726 0 0 1-.646-.395Zm174.36.125a.723.723 0 0 1-.318-.974.72.72 0 0 1 .974-.309.71.71 0 0 1 .318.965.738.738 0 0 1-.646.4.673.673 0 0 1-.329-.081Zm-177.593-7.128a.724.724 0 0 1 .386-.946.736.736 0 0 1 .945.4.72.72 0 0 1-.395.946.685.685 0 0 1-.27.057.729.729 0 0 1-.666-.457Zm180.843.183a.728.728 0 0 1-.4-.945v.009a.72.72 0 0 1 .945-.4.713.713 0 0 1 .4.946.72.72 0 0 1-.666.444.723.723 0 0 1-.279-.054ZM22 146.017a.72.72 0 0 1 .462-.917.721.721 0 0 1 .907.464.727.727 0 0 1-.464.916.85.85 0 0 1-.221.029.715.715 0 0 1-.684-.492Zm186.215.232a.719.719 0 0 1-.473-.907.728.728 0 0 1 .907-.473.726.726 0 0 1 .472.917.723.723 0 0 1-.694.5.558.558 0 0 1-.216-.037Zm-188.319-7.66a.739.739 0 0 1 .541-.878.721.721 0 0 1 .868.541.718.718 0 0 1-.53.868.984.984 0 0 1-.173.02.732.732 0 0 1-.71-.551Zm190.431.3a.739.739 0 0 1-.54-.878.723.723 0 0 1 .878-.53.715.715 0 0 1 .53.868.731.731 0 0 1-.7.559 1.111 1.111 0 0 1-.172-.02ZM18.4 131.017a.717.717 0 0 1 .6-.83.729.729 0 0 1 .83.6.731.731 0 0 1-.608.83.408.408 0 0 1-.106.009.724.724 0 0 1-.716-.609Zm193.45.357a.708.708 0 0 1-.6-.821.726.726 0 0 1 .82-.608.735.735 0 0 1 .608.83.724.724 0 0 1-.714.608.482.482 0 0 1-.117-.009Zm-194.359-8.026a.721.721 0 0 1 .665-.772.724.724 0 0 1 .782.665.724.724 0 0 1-.666.772h-.058a.725.725 0 0 1-.723-.665Zm195.292.425a.723.723 0 0 1-.665-.772.709.709 0 0 1 .772-.665.709.709 0 0 1 .666.771.717.717 0 0 1-.714.666h-.058ZM17.191 115.64a.717.717 0 0 1 .723-.723.723.723 0 0 1 .723.723.729.729 0 0 1-.723.724.722.722 0 0 1-.723-.724Zm195.209-.24a.722.722 0 0 1 .724-.724.722.722 0 0 1 .724.724.729.729 0 0 1-.724.724.729.729 0 0 1-.724-.724Zm-194.254-6.7a.727.727 0 0 1-.666-.782.726.726 0 0 1 .782-.665.73.73 0 0 1 .665.781.725.725 0 0 1-.723.666h-.058Zm193.942-.907a.724.724 0 0 1 .666-.781.722.722 0 0 1 .772.665.718.718 0 0 1-.656.782h-.058a.726.726 0 0 1-.724-.659Zm-193.112-6.709a.711.711 0 0 1-.6-.82.719.719 0 0 1 .82-.608.733.733 0 0 1 .608.829.723.723 0 0 1-.713.608.482.482 0 0 1-.115-.009Zm192.215-.839a.72.72 0 0 1 .6-.829.733.733 0 0 1 .829.608.72.72 0 0 1-.6.829h-.116a.723.723 0 0 1-.712-.609ZM20.4 93.559a.728.728 0 0 1-.54-.869.73.73 0 0 1 .878-.54.719.719 0 0 1 .53.868v.01a.722.722 0 0 1-.7.549.52.52 0 0 1-.168-.018Zm189.3-.772a.72.72 0 0 1 .53-.869.715.715 0 0 1 .868.53h.01a.743.743 0 0 1-.54.878 1.1 1.1 0 0 1-.174.02.718.718 0 0 1-.688-.558ZM22.419 86.17a.72.72 0 0 1-.462-.917.717.717 0 0 1 .906-.463.727.727 0 0 1 .463.916.725.725 0 0 1-.685.493.847.847 0 0 1-.222-.029Zm185.212-.694a.72.72 0 0 1 .463-.917.721.721 0 0 1 .906.462.72.72 0 0 1-.463.917.807.807 0 0 1-.222.039.713.713 0 0 1-.683-.501ZM25.015 78.954a.727.727 0 0 1-.4-.945.72.72 0 0 1 .946-.4.728.728 0 0 1 .395.946.718.718 0 0 1-.665.444.682.682 0 0 1-.276-.045Zm179.975-.608a.723.723 0 0 1 .385-.945.72.72 0 0 1 .946.4.723.723 0 0 1-.386.945.724.724 0 0 1-.28.058.728.728 0 0 1-.666-.458ZM28.169 71.96a.729.729 0 0 1-.318-.974.729.729 0 0 1 .975-.308.718.718 0 0 1 .318.974.725.725 0 0 1-.646.385.679.679 0 0 1-.329-.077Zm173.618-.5a.723.723 0 0 1 .318-.974.72.72 0 0 1 .974.308.724.724 0 0 1-.318.975.663.663 0 0 1-.328.077.727.727 0 0 1-.647-.387ZM31.874 65.246a.714.714 0 0 1-.241-.993.729.729 0 0 1 .993-.241.731.731 0 0 1 .241.993.726.726 0 0 1-.617.348.653.653 0 0 1-.376-.107Zm166.189-.414a.72.72 0 0 1 .232-.994.712.712 0 0 1 .994.241.722.722 0 0 1-.232.994.763.763 0 0 1-.376.106.716.716 0 0 1-.619-.347Zm-161.975-5.99a.706.706 0 0 1-.164-1v-.013a.732.732 0 0 1 1.014-.154.732.732 0 0 1 .154 1.013.728.728 0 0 1-.588.289.672.672 0 0 1-.416-.135Zm157.73-.318a.724.724 0 0 1 .164-1.013.734.734 0 0 1 1.013.155h-.009a.714.714 0 0 1-.154 1.013.7.7 0 0 1-.425.135.729.729 0 0 1-.588-.291Zm-153.032-5.73a.724.724 0 0 1-.087-1.023.731.731 0 0 1 1.023-.087.729.729 0 0 1 .076 1.022.709.709 0 0 1-.549.261.716.716 0 0 1-.463-.173Zm148.314-.232a.731.731 0 0 1 .077-1.023.731.731 0 0 1 1.023.077.722.722 0 0 1-.077 1.023.736.736 0 0 1-.473.173.737.737 0 0 1-.55-.25ZM45.937 47.121a.727.727 0 0 1 0-1.022.728.728 0 0 1 1.023 0 .711.711 0 0 1 0 1.022.684.684 0 0 1-.512.213.717.717 0 0 1-.511-.213Zm137.993-.135a.74.74 0 0 1 0-1.032.727.727 0 0 1 1.022 0 .728.728 0 0 1 0 1.023.718.718 0 0 1-.512.212.747.747 0 0 1-.509-.203ZM51.523 41.874a.732.732 0 0 1 .077-1.023.732.732 0 0 1 1.023.077.731.731 0 0 1-.077 1.023.754.754 0 0 1-.473.173.736.736 0 0 1-.55-.25Zm126.813-.048a.73.73 0 0 1-.076-1.023.73.73 0 0 1 1.022-.077h-.009a.713.713 0 0 1 .087 1.014.714.714 0 0 1-.55.26.735.735 0 0 1-.475-.174ZM57.494 37.08a.725.725 0 0 1 .164-1.014.727.727 0 0 1 1.013.165.713.713 0 0 1-.164 1 .7.7 0 0 1-.424.145.743.743 0 0 1-.589-.296Zm114.87.039a.727.727 0 0 1-.164-1.019.723.723 0 0 1 1.013-.154v-.01a.737.737 0 0 1 .164 1.014.714.714 0 0 1-.589.3.677.677 0 0 1-.423-.132ZM63.832 32.767a.73.73 0 0 1 .231-1 .731.731 0 0 1 .994.241.721.721 0 0 1-.232.994.676.676 0 0 1-.376.106.705.705 0 0 1-.617-.341Zm102.2.125a.715.715 0 0 1-.241-.993.723.723 0 0 1 .994-.241.731.731 0 0 1 .241.993.705.705 0 0 1-.617.348.657.657 0 0 1-.373-.107Zm-95.554-3.935a.723.723 0 0 1 .309-.975v.01a.719.719 0 0 1 .974.308.728.728 0 0 1-.309.974.673.673 0 0 1-.328.077.715.715 0 0 1-.646-.394Zm88.911.221a.72.72 0 0 1-.309-.974.71.71 0 0 1 .965-.318.723.723 0 0 1 .318.974.726.726 0 0 1-.646.4.819.819 0 0 1-.327-.081ZM77.395 25.7a.729.729 0 0 1 .4-.945.722.722 0 0 1 .945.386.723.723 0 0 1-.385.945.766.766 0 0 1-.28.057.723.723 0 0 1-.68-.443Zm75.088.3h-.009a.725.725 0 0 1-.386-.946.724.724 0 0 1 .946-.385v-.014a.723.723 0 0 1 .386.945.719.719 0 0 1-.666.453.681.681 0 0 1-.271-.053Zm-67.921-3.01a.72.72 0 0 1 .463-.917.721.721 0 0 1 .906.463.72.72 0 0 1-.462.917.918.918 0 0 1-.222.038.725.725 0 0 1-.685-.505Zm60.773.386a.715.715 0 0 1-.463-.907.722.722 0 0 1 .906-.473.728.728 0 0 1 .463.917.723.723 0 0 1-.685.5.613.613 0 0 1-.221-.041Zm-53.422-2.532a.721.721 0 0 1 .541-.869v-.009a.725.725 0 0 1 .868.54.714.714 0 0 1-.53.869.546.546 0 0 1-.173.019.73.73 0 0 1-.706-.55Zm46.1.482a.735.735 0 0 1-.54-.878.732.732 0 0 1 .868-.541.724.724 0 0 1 .541.878.731.731 0 0 1-.7.56.975.975 0 0 1-.169-.018Zm-38.6-2.036a.721.721 0 0 1 .6-.83.731.731 0 0 1 .83.609.708.708 0 0 1-.6.82.483.483 0 0 1-.116.009.723.723 0 0 1-.709-.607Zm31.129.569a.72.72 0 0 1-.6-.829.72.72 0 0 1 .82-.609.735.735 0 0 1 .608.83.723.723 0 0 1-.714.608h-.116Zm-23.527-1.524a.719.719 0 0 1 .666-.781.722.722 0 0 1 .771.665.718.718 0 0 1-.652.781h-.058a.726.726 0 0 1-.723-.664Zm15.975.646a.722.722 0 0 1-.666-.771.727.727 0 0 1 .781-.675.738.738 0 0 1 .666.782.725.725 0 0 1-.724.665h-.057Zm-8.326-1a.731.731 0 0 1 .724-.733.722.722 0 0 1 .724.724.716.716 0 0 1-.724.723.721.721 0 0 1-.719-.716ZM114.669 204.435a.857.857 0 0 1 .85-.849v.01h.1c.029 0 .068-.01.106-.01a.851.851 0 0 1 .849.849.84.84 0 0 1-.839.839h-.212a.848.848 0 0 1-.854-.839Zm-6.858.521a.85.85 0 0 1-.772-.916.851.851 0 0 1 .916-.772.837.837 0 0 1 .762.917.84.84 0 0 1-.839.772h-.067Zm14.711-.79a.849.849 0 0 1 .762-.917.852.852 0 0 1 .917.772.85.85 0 0 1-.762.917h-.077a.84.84 0 0 1-.841-.772Zm-22.361-.193a.853.853 0 0 1-.695-.973.848.848 0 0 1 .974-.7.849.849 0 0 1 .7.975.856.856 0 0 1-.839.7.663.663 0 0 1-.141-.002Zm29.943-.724a.86.86 0 0 1 .685-.984.859.859 0 0 1 .984.685.859.859 0 0 1-.685.984.9.9 0 0 1-.155.01.854.854 0 0 1-.833-.695Zm-37.485-.917a.843.843 0 0 1-.6-1.032.841.841 0 0 1 1.022-.608.851.851 0 0 1 .608 1.032.846.846 0 0 1-.82.627.766.766 0 0 1-.212-.018Zm44.972-.656a.833.833 0 0 1 .6-1.032.838.838 0 0 1 1.032.6.849.849 0 0 1-.6 1.032.9.9 0 0 1-.221.028.833.833 0 0 1-.813-.627Zm-52.342-1.64v.009a.848.848 0 0 1-.511-1.081.841.841 0 0 1 1.08-.511.848.848 0 0 1 .511 1.08.862.862 0 0 1-.8.56.766.766 0 0 1-.282-.056Zm59.654-.569a.841.841 0 0 1 .511-1.081.841.841 0 0 1 1.081.5.841.841 0 0 1-.512 1.081.738.738 0 0 1-.279.048.854.854 0 0 1-.804-.547Zm-66.8-2.345a.842.842 0 0 1-.415-1.118.844.844 0 0 1 1.119-.415.843.843 0 0 1 .414 1.119.844.844 0 0 1-.771.492.746.746 0 0 1-.35-.077Zm73.9-.492a.84.84 0 0 1 .405-1.119v-.011a.858.858 0 0 1 1.129.415.843.843 0 0 1-.415 1.119.79.79 0 0 1-.357.077.823.823 0 0 1-.765-.479Zm-80.772-3.03a.843.843 0 0 1-.318-1.148.833.833 0 0 1 1.147-.319.839.839 0 0 1 .318 1.148.85.85 0 0 1-.733.425.8.8 0 0 1-.414-.106Zm87.59-.415a.841.841 0 0 1 .318-1.148.845.845 0 0 1 1.147.309.856.856 0 0 1-.308 1.157.842.842 0 0 1-.425.106.851.851 0 0 1-.732-.421Zm-94.13-3.685a.851.851 0 0 1-.222-1.177.842.842 0 0 1 1.178-.213.84.84 0 0 1 .221 1.167.848.848 0 0 1-.7.367.855.855 0 0 1-.477-.144Zm100.632-.328a.852.852 0 0 1 .221-1.177.84.84 0 0 1 1.167.222.841.841 0 0 1-.212 1.177.856.856 0 0 1-.482.145.843.843 0 0 1-.694-.364Zm-106.8-4.322a.851.851 0 0 1-.116-1.186.833.833 0 0 1 1.186-.116.832.832 0 0 1 .116 1.186.832.832 0 0 1-.646.309.881.881 0 0 1-.536-.19Zm112.941-.232a.839.839 0 0 1 .106-1.186.842.842 0 0 1 1.187.106.842.842 0 0 1-.106 1.186.821.821 0 0 1-.54.2.832.832 0 0 1-.643-.302Zm-118.677-4.925a.839.839 0 0 1-.02-1.187.842.842 0 0 1 1.2-.019.85.85 0 0 1 .02 1.2.841.841 0 0 1-.608.251.823.823 0 0 1-.592-.245Zm124.4-.145a.838.838 0 0 1 .009-1.186.842.842 0 0 1 1.2.009.851.851 0 0 1-.009 1.2.867.867 0 0 1-.589.241.83.83 0 0 1-.61-.264Zm-129.676-5.479a.832.832 0 0 1 .087-1.187.832.832 0 0 1 1.186.088.831.831 0 0 1-.087 1.186.846.846 0 0 1-.55.2.822.822 0 0 1-.636-.287Zm134.954-.048a.853.853 0 0 1-.1-1.2.843.843 0 0 1 1.2-.087.849.849 0 0 1 .087 1.186.849.849 0 0 1-.637.3.828.828 0 0 1-.551-.199Zm-139.738-6.01a.846.846 0 0 1 .192-1.177.83.83 0 0 1 1.177.193.849.849 0 0 1-.196 1.173.826.826 0 0 1-.492.155.832.832 0 0 1-.682-.344Zm144.513.039a.847.847 0 0 1-.193-1.177.846.846 0 0 1 1.177-.193.846.846 0 0 1 .193 1.177.832.832 0 0 1-.685.348.846.846 0 0 1-.493-.156Zm-148.759-6.483a.845.845 0 0 1 .289-1.158.856.856 0 0 1 1.167.289.848.848 0 0 1-.3 1.158.777.777 0 0 1-.425.125.874.874 0 0 1-.731-.414Zm153.012.125a.849.849 0 0 1-.3-1.158.847.847 0 0 1 1.158-.289.838.838 0 0 1 .3 1.148.854.854 0 0 1-.734.415.85.85 0 0 1-.423-.116Zm-156.677-6.907a.846.846 0 0 1 .385-1.129.837.837 0 0 1 1.129.386.849.849 0 0 1-.385 1.129.9.9 0 0 1-.377.087.835.835 0 0 1-.752-.473Zm160.362.215a.852.852 0 0 1-.395-1.129h.009a.834.834 0 0 1 1.119-.4.843.843 0 0 1 .4 1.129.841.841 0 0 1-.762.472.8.8 0 0 1-.371-.072Zm-163.44-7.3a.841.841 0 0 1 .492-1.09.846.846 0 0 1 1.091.492.857.857 0 0 1-.493 1.09 1.063 1.063 0 0 1-.3.048.852.852 0 0 1-.79-.54Zm166.537.3a.839.839 0 0 1-.482-1.09h-.01a.853.853 0 0 1 1.09-.492.842.842 0 0 1 .493 1.09.842.842 0 0 1-.791.541.807.807 0 0 1-.3-.049Zm-168.987-7.607a.859.859 0 0 1 .579-1.051.844.844 0 0 1 1.042.578h.009a.858.858 0 0 1-.579 1.051 1.063 1.063 0 0 1-.239.029.845.845 0 0 1-.812-.607Zm171.466.376a.848.848 0 0 1-.578-1.042.829.829 0 0 1 1.042-.578.83.83 0 0 1 .578 1.042.845.845 0 0 1-.81.608.93.93 0 0 1-.232-.03Zm-173.27-7.881a.853.853 0 0 1 .666-.993.858.858 0 0 1 .994.665.848.848 0 0 1-.666.994.974.974 0 0 1-.164.019.846.846 0 0 1-.83-.685Zm175.122.464a.843.843 0 0 1-.675-.984.847.847 0 0 1 .994-.674.848.848 0 0 1 .666.993.846.846 0 0 1-.83.685.866.866 0 0 1-.155-.021Zm-176.279-8.095h.009a.831.831 0 0 1 .742-.926.837.837 0 0 1 .926.743.833.833 0 0 1-.742.936h-.1a.844.844 0 0 1-.835-.753Zm177.466.55a.859.859 0 0 1-.753-.935.84.84 0 0 1 .935-.743.834.834 0 0 1 .753.926h-.009a.829.829 0 0 1-.83.753h-.1ZM25.834 117.56a.841.841 0 0 1 .83-.858.833.833 0 0 1 .858.82.85.85 0 0 1-.829.868h-.01a.847.847 0 0 1-.849-.83Zm178.508.617a.848.848 0 0 1-.829-.858.848.848 0 0 1 .858-.83.851.851 0 0 1 .83.869v-.01a.844.844 0 0 1-.839.829h-.02ZM26.78 110.739a.835.835 0 0 1-.782-.9.833.833 0 0 1 .887-.781.84.84 0 0 1 .791.887v.009a.835.835 0 0 1-.839.781h-.057Zm176.56-.993a.85.85 0 0 1 .79-.9.851.851 0 0 1 .9.791.857.857 0 0 1-.791.9h-.058a.849.849 0 0 1-.841-.791Zm-175.818-6.608a.854.854 0 0 1-.713-.965.85.85 0 0 1 .965-.714.855.855 0 0 1 .7.965.842.842 0 0 1-.839.723c-.035.001-.074-.009-.113-.009Zm175-.917a.855.855 0 0 1 .714-.965.842.842 0 0 1 .955.714.832.832 0 0 1-.7.955.562.562 0 0 1-.125.009.85.85 0 0 1-.847-.713ZM28.9 95.614a.829.829 0 0 1-.618-1.013.842.842 0 0 1 1.013-.627.852.852 0 0 1 .63 1.026.852.852 0 0 1-.819.646.748.748 0 0 1-.206-.032Zm172.16-.82a.858.858 0 0 1 .617-1.023.856.856 0 0 1 1.023.627.836.836 0 0 1-.618 1.013.744.744 0 0 1-.2.029.852.852 0 0 1-.819-.646Zm-170.123-6.54a.841.841 0 0 1-.53-1.071.839.839 0 0 1 1.061-.54.854.854 0 0 1 .541 1.07.857.857 0 0 1-.81.579 1.245 1.245 0 0 1-.262-.038Zm168.023-.733a.85.85 0 0 1 .54-1.071.845.845 0 0 1 1.061.53.838.838 0 0 1-.53 1.071.827.827 0 0 1-.27.048.854.854 0 0 1-.801-.578ZM33.6 81.077a.851.851 0 0 1-.444-1.109.845.845 0 0 1 1.119-.434.842.842 0 0 1 .434 1.109.838.838 0 0 1-.772.5.82.82 0 0 1-.337-.066Zm162.64-.617h.009a.838.838 0 0 1 .434-1.11.848.848 0 0 1 1.11.434.848.848 0 0 1-.434 1.11.866.866 0 0 1-.338.077.86.86 0 0 1-.781-.512ZM36.87 74.169a.85.85 0 0 1-.338-1.147.844.844 0 0 1 1.148-.338.842.842 0 0 1 .337 1.139.852.852 0 0 1-.742.444.887.887 0 0 1-.405-.098Zm156.05-.511a.847.847 0 0 1 .348-1.148.841.841 0 0 1 1.138.338.841.841 0 0 1-.337 1.152.844.844 0 0 1-.405.106.853.853 0 0 1-.743-.447Zm-152.192-6.1a.84.84 0 0 1-.241-1.167.841.841 0 0 1 1.167-.241.833.833 0 0 1 .241 1.167.845.845 0 0 1-.7.386.82.82 0 0 1-.466-.141Zm148.3-.4a.832.832 0 0 1 .247-1.158.835.835 0 0 1 1.167.241.852.852 0 0 1-.241 1.167.829.829 0 0 1-.464.136.857.857 0 0 1-.703-.378Zm-143.9-5.845A.844.844 0 0 1 45 60.134a.834.834 0 0 1 1.177-.144.844.844 0 0 1 .145 1.186.836.836 0 0 1-.666.318.863.863 0 0 1-.518-.173Zm139.472-.281a.844.844 0 0 1 .136-1.187.845.845 0 0 1 1.186.145.833.833 0 0 1-.135 1.177.82.82 0 0 1-.521.183.836.836 0 0 1-.666-.318ZM50.066 55.475a.85.85 0 0 1-.039-1.2.841.841 0 0 1 1.2-.039.85.85 0 0 1 .039 1.2.868.868 0 0 1-.617.261.867.867 0 0 1-.583-.222Zm129.582-.175a.851.851 0 0 1 .039-1.2.851.851 0 0 1 1.2.039h-.01a.831.831 0 0 1-.029 1.187.851.851 0 0 1-.579.231.855.855 0 0 1-.621-.257Zm-124.17-5.236a.832.832 0 0 1 .057-1.187.851.851 0 0 1 1.2.058.85.85 0 0 1-.068 1.2.845.845 0 0 1-.56.213.8.8 0 0 1-.629-.284Zm118.748-.058a.83.83 0 0 1-.057-1.186.838.838 0 0 1 1.186-.068.84.84 0 0 1 .068 1.187.822.822 0 0 1-.627.289.861.861 0 0 1-.57-.223Zm-112.9-4.862a.844.844 0 0 1 .164-1.177.846.846 0 0 1 1.187.164.844.844 0 0 1-.164 1.177.862.862 0 0 1-.512.174.832.832 0 0 1-.677-.339Zm107.055.056a.836.836 0 0 1-.164-1.187.842.842 0 0 1 1.177-.164.846.846 0 0 1 .164 1.187.85.85 0 0 1-.675.328.821.821 0 0 1-.502-.164ZM67.575 40.745a.844.844 0 0 1 .26-1.167v.009a.844.844 0 0 1 1.165.261.853.853 0 0 1-.26 1.167.874.874 0 0 1-.453.125.825.825 0 0 1-.712-.395Zm94.564.164a.834.834 0 0 1-.269-1.158.847.847 0 0 1 1.167-.27.839.839 0 0 1 .26 1.167.843.843 0 0 1-.713.4.83.83 0 0 1-.445-.139ZM74.173 36.9a.847.847 0 0 1 .366-1.138.846.846 0 0 1 1.138.366.846.846 0 0 1-.366 1.138.892.892 0 0 1-.385.087.847.847 0 0 1-.753-.453Zm81.378.28a.847.847 0 0 1-.367-1.138.844.844 0 0 1 1.139-.366.847.847 0 0 1 .366 1.138.857.857 0 0 1-.753.453.9.9 0 0 1-.385-.091ZM81.09 33.635a.837.837 0 0 1 .453-1.1.837.837 0 0 1 1.1.453.837.837 0 0 1-.454 1.1.768.768 0 0 1-.328.068.822.822 0 0 1-.771-.521Zm67.573.386a.848.848 0 0 1-.463-1.1.833.833 0 0 1 1.1-.463.842.842 0 0 1 .464 1.1.847.847 0 0 1-.782.521.925.925 0 0 1-.319-.057Zm-60.406-3.048a.831.831 0 0 1 .55-1.051.844.844 0 0 1 1.061.549.858.858 0 0 1-.56 1.062.771.771 0 0 1-.251.039.834.834 0 0 1-.8-.599Zm53.268.5h.009a.851.851 0 0 1-.56-1.061.844.844 0 0 1 1.051-.559.858.858 0 0 1 .56 1.061.848.848 0 0 1-.81.589 1.143 1.143 0 0 1-.25-.029Zm-45.908-2.526a.848.848 0 0 1 .647-1 .858.858 0 0 1 1.013.646.847.847 0 0 1-.646 1 .582.582 0 0 1-.184.02.855.855 0 0 1-.83-.666Zm38.583.608v-.01a.838.838 0 0 1-.646-.994.838.838 0 0 1 1-.646.828.828 0 0 1 .646 1 .843.843 0 0 1-.82.666 1.113 1.113 0 0 1-.18-.016Zm-31.061-1.987a.839.839 0 0 1 .724-.946h.009a.858.858 0 0 1 .945.734.851.851 0 0 1-.733.945c-.039 0-.068.009-.106.009a.851.851 0 0 1-.836-.742Zm23.6.7a.846.846 0 0 1-.733-.946.845.845 0 0 1 .945-.733.851.851 0 0 1 .733.945.858.858 0 0 1-.838.743.408.408 0 0 1-.1-.005Zm-15.994-1.428a.823.823 0 0 1 .8-.878.835.835 0 0 1 .878.8.842.842 0 0 1-.8.878h-.039a.832.832 0 0 1-.832-.796Zm7.64-.087a.848.848 0 0 1 .878-.81v.01a.842.842 0 0 1 .81.878.841.841 0 0 1-.878.8v.009a.858.858 0 0 1-.803-.882ZM114.554 195.687a.967.967 0 0 1 .965-.965.273.273 0 0 1 .087.01.267.267 0 0 1 .087-.01h.007a.968.968 0 0 1 .965.965.968.968 0 0 1-.965.965h-.183a.967.967 0 0 1-.963-.965Zm1.147.965Zm-7.775-.348a.964.964 0 0 1-.869-1.051.964.964 0 0 1 1.051-.868.961.961 0 0 1 .868 1.042.97.97 0 0 1-.955.878h-.1Zm14.306-.887a.97.97 0 0 1 .868-1.051.979.979 0 0 1 1.062.868.965.965 0 0 1-.868 1.052c-.039 0-.068.009-.1.009a.972.972 0 0 1-.962-.879Zm-21.831-.173v.009a.978.978 0 0 1-.772-1.129.97.97 0 0 1 1.129-.771.96.96 0 0 1 .772 1.129.961.961 0 0 1-.946.781.614.614 0 0 1-.184-.02Zm29.278-.8a.976.976 0 0 1 .772-1.129.976.976 0 0 1 1.129.771.977.977 0 0 1-.772 1.129 1.087 1.087 0 0 1-.173.019.971.971 0 0 1-.956-.792Zm-36.666-.955a.959.959 0 0 1-.657-1.2.957.957 0 0 1 1.187-.656.972.972 0 0 1 .665 1.2.969.969 0 0 1-.935.694.8.8 0 0 1-.26-.04Zm43.988-.7a.966.966 0 0 1 .656-1.2.958.958 0 0 1 1.2.656.959.959 0 0 1-.656 1.2 1.339 1.339 0 0 1-.27.039.978.978 0 0 1-.931-.702Zm-51.184-1.746a.953.953 0 0 1-.541-1.244.959.959 0 0 1 1.244-.55.965.965 0 0 1 .55 1.255.98.98 0 0 1-.9.608.9.9 0 0 1-.353-.075Zm58.312-.608a.973.973 0 0 1 .55-1.254.961.961 0 0 1 1.244.54.952.952 0 0 1-.54 1.254.879.879 0 0 1-.348.068.983.983 0 0 1-.906-.614Zm-65.248-2.508v.009a.977.977 0 0 1-.425-1.3.975.975 0 0 1 1.3-.424.971.971 0 0 1 .424 1.3.976.976 0 0 1-.858.521.921.921 0 0 1-.441-.111Zm72.136-.5a.951.951 0 0 1 .415-1.292.97.97 0 0 1 1.3.415.974.974 0 0 1-.424 1.3 1 1 0 0 1-.434.106.946.946 0 0 1-.857-.537Zm-78.744-3.251a.964.964 0 0 1-.3-1.331.977.977 0 0 1 1.331-.3.958.958 0 0 1 .3 1.331.962.962 0 0 1-.81.453.934.934 0 0 1-.521-.161Zm85.3-.4a.956.956 0 0 1 .3-1.322v-.01a.977.977 0 0 1 1.332.3.957.957 0 0 1-.3 1.331.911.911 0 0 1-.512.154.977.977 0 0 1-.817-.456Zm-91.525-3.955a.968.968 0 0 1-.184-1.351.969.969 0 0 1 1.36-.173.974.974 0 0 1 .173 1.351.976.976 0 0 1-.762.376.947.947 0 0 1-.584-.206Zm97.728-.28a.976.976 0 0 1 .164-1.36.986.986 0 0 1 1.36.173.986.986 0 0 1-.173 1.36.985.985 0 0 1-.589.2.965.965 0 0 1-.759-.376ZM60.254 174.9a.961.961 0 0 1-.049-1.36.962.962 0 0 1 1.36-.049.952.952 0 0 1 .048 1.36.95.95 0 0 1-.7.309.958.958 0 0 1-.659-.26Zm109.294-.165a.964.964 0 0 1 .048-1.37.97.97 0 0 1 1.36.049.965.965 0 0 1-.048 1.37v-.01a.943.943 0 0 1-.657.261.957.957 0 0 1-.703-.301Zm-114.61-5.267a.97.97 0 0 1 .077-1.359.974.974 0 0 1 1.37.076.963.963 0 0 1-.087 1.36.937.937 0 0 1-.637.241.966.966 0 0 1-.723-.319Zm119.906-.048a.973.973 0 0 1-.077-1.37.961.961 0 0 1 1.359-.077.963.963 0 0 1 .088 1.36.994.994 0 0 1-.723.328 1.03 1.03 0 0 1-.647-.242Zm-124.681-5.856a.959.959 0 0 1 .2-1.351.968.968 0 0 1 1.35.2.97.97 0 0 1-.212 1.351.942.942 0 0 1-.569.192.958.958 0 0 1-.769-.392Zm129.465.058a.967.967 0 0 1-.2-1.351.966.966 0 0 1 1.35-.2.967.967 0 0 1 .2 1.351.966.966 0 0 1-.781.4.986.986 0 0 1-.568-.2Zm-133.68-6.386a.96.96 0 0 1 .328-1.322.971.971 0 0 1 1.331.328.962.962 0 0 1-.337 1.322.936.936 0 0 1-.493.145.976.976 0 0 1-.829-.473Zm137.906.184a.97.97 0 0 1-.328-1.331.965.965 0 0 1 1.321-.329.969.969 0 0 1 .329 1.322.967.967 0 0 1-.83.473 1.022 1.022 0 0 1-.492-.136Zm-141.5-6.878a.957.957 0 0 1 .453-1.283.957.957 0 0 1 1.283.453.957.957 0 0 1-.453 1.283.909.909 0 0 1-.415.1.962.962 0 0 1-.873-.554Zm145.131.3a.981.981 0 0 1-.464-1.292.969.969 0 0 1 1.293-.453.965.965 0 0 1 .453 1.282.965.965 0 0 1-.878.55 1.028 1.028 0 0 1-.408-.089ZM39.4 143.548a.967.967 0 0 1 .569-1.244.962.962 0 0 1 1.235.578.962.962 0 0 1-.57 1.235.987.987 0 0 1-.337.058.954.954 0 0 1-.897-.627Zm151.063.395a.964.964 0 0 1-.569-1.234.963.963 0 0 1 1.235-.579.973.973 0 0 1 .578 1.244.976.976 0 0 1-.906.627 1.039 1.039 0 0 1-.34-.059Zm-153.35-7.649a.965.965 0 0 1 .685-1.177.975.975 0 0 1 1.186.685.974.974 0 0 1-.694 1.186 1.01 1.01 0 0 1-.241.029.967.967 0 0 1-.938-.724Zm155.687.506a.962.962 0 0 1-.694-1.177.967.967 0 0 1 1.177-.685.963.963 0 0 1 .685 1.177.946.946 0 0 1-.926.713 1.055 1.055 0 0 1-.242-.028Zm-157.281-7.935a.968.968 0 0 1 .8-1.109.968.968 0 0 1 1.11.79.963.963 0 0 1-.8 1.11.866.866 0 0 1-.154.019.971.971 0 0 1-.956-.81Zm158.916.618a.969.969 0 0 1-.8-1.11.963.963 0 0 1 1.11-.8.962.962 0 0 1 .79 1.11.962.962 0 0 1-.945.81c-.058 0-.106-.01-.154-.01Zm-159.794-8.161a.963.963 0 0 1 .9-1.032.961.961 0 0 1 1.022.9.962.962 0 0 1-.887 1.032h-.07a.963.963 0 0 1-.965-.9Zm160.74.7a.949.949 0 0 1-.9-1.022.956.956 0 0 1 1.023-.9.965.965 0 0 1 .9 1.032.96.96 0 0 1-.955.9.142.142 0 0 1-.068-.006ZM35.4 114.714a.982.982 0 0 1-.945-.994.959.959 0 0 1 .984-.936.956.956 0 0 1 .946.984.969.969 0 0 1-.965.945h-.02Zm159.235-1.129a.959.959 0 0 1 .936-.983.955.955 0 0 1 .994.935.975.975 0 0 1-.935.994h-.03a.97.97 0 0 1-.962-.946Zm-158.81-6.377a.962.962 0 0 1-.849-1.061.964.964 0 0 1 1.07-.849.966.966 0 0 1 .85 1.071.96.96 0 0 1-.955.849.437.437 0 0 1-.113-.009Zm158.289-1.022h-.01a.972.972 0 0 1 .849-1.071.967.967 0 0 1 1.071.849v-.01a.982.982 0 0 1-.839 1.081h-.125a.95.95 0 0 1-.943-.848Zm-157.16-6.4a.963.963 0 0 1-.742-1.148v.01a.958.958 0 0 1 1.138-.753.966.966 0 0 1 .742 1.147.956.956 0 0 1-.935.762.74.74 0 0 1-.2-.013Zm155.935-.917a.968.968 0 0 1 .742-1.147.967.967 0 0 1 1.148.742.976.976 0 0 1-.743 1.148 1.459 1.459 0 0 1-.2.019.967.967 0 0 1-.943-.757ZM38.77 92.508a.963.963 0 0 1-.626-1.216.957.957 0 0 1 1.206-.626.953.953 0 0 1 .627 1.206.958.958 0 0 1-.917.675 1.025 1.025 0 0 1-.29-.039ZM191 91.7a.956.956 0 0 1 .626-1.206.948.948 0 0 1 1.206.627.963.963 0 0 1-.626 1.215.993.993 0 0 1-.29.039.956.956 0 0 1-.916-.675ZM41.269 85.417a.961.961 0 0 1-.521-1.254.973.973 0 0 1 1.264-.521.973.973 0 0 1 .521 1.264.967.967 0 0 1-.9.588.858.858 0 0 1-.364-.077Zm147.167-.675a.958.958 0 0 1 .511-1.263.96.96 0 0 1 1.264.511.957.957 0 0 1-.512 1.263.868.868 0 0 1-.376.077.961.961 0 0 1-.887-.588ZM44.424 78.607a.969.969 0 0 1-.4-1.312.956.956 0 0 1 1.3-.385.957.957 0 0 1 .4 1.3.964.964 0 0 1-.849.512.957.957 0 0 1-.451-.115Zm140.8-.55a.963.963 0 0 1 .385-1.3.958.958 0 0 1 1.312.385.972.972 0 0 1-.4 1.312.957.957 0 0 1-.453.116.952.952 0 0 1-.845-.513ZM48.2 72.115a.964.964 0 0 1-.28-1.331v-.01a.974.974 0 0 1 1.34-.27.967.967 0 0 1 .27 1.341.961.961 0 0 1-.8.433.975.975 0 0 1-.53-.163Zm133.2-.415a.95.95 0 0 1 .26-1.331.964.964 0 0 1 1.342.26.967.967 0 0 1-.27 1.341.985.985 0 0 1-.53.164.949.949 0 0 1-.802-.434ZM52.565 66.009a.974.974 0 0 1-.135-1.359.963.963 0 0 1 1.351-.145.966.966 0 0 1 .144 1.36.984.984 0 0 1-.753.357.972.972 0 0 1-.607-.213Zm124.43-.28a.965.965 0 0 1 .145-1.359.961.961 0 0 1 1.35.144.965.965 0 0 1-.135 1.36.97.97 0 0 1-.608.212.984.984 0 0 1-.752-.357Zm-119.5-5.392a.964.964 0 0 1-.02-1.37.961.961 0 0 1 1.36-.009.96.96 0 0 1 .02 1.36.978.978 0 0 1-.694.289.934.934 0 0 1-.667-.27Zm114.561-.144a.952.952 0 0 1 .02-1.36.961.961 0 0 1 1.36.009.981.981 0 0 1-.01 1.37.971.971 0 0 1-.675.27.982.982 0 0 1-.695-.29Zm1.38-1.351Zm-110.52-3.695a.963.963 0 0 1 .106-1.36h.01a.951.951 0 0 1 1.35.106.964.964 0 0 1-.105 1.36.971.971 0 0 1-.627.232.971.971 0 0 1-.734-.338Zm103.709-.01a.953.953 0 0 1-.116-1.351.957.957 0 0 1 1.36-.116.973.973 0 0 1 .116 1.36.978.978 0 0 1-.743.338.965.965 0 0 1-.617-.231ZM68.8 50.478a.962.962 0 0 1 .241-1.34.955.955 0 0 1 1.341.241.954.954 0 0 1-.241 1.34h.009a1 1 0 0 1-.56.173.974.974 0 0 1-.79-.414Zm91.941.135a.957.957 0 0 1-.232-1.34.968.968 0 0 1 1.34-.241.97.97 0 0 1 .241 1.341.98.98 0 0 1-.8.415.927.927 0 0 1-.549-.175ZM75.1 46.388a.951.951 0 0 1 .357-1.311.966.966 0 0 1 1.322.356.978.978 0 0 1-.366 1.322 1.008 1.008 0 0 1-.473.116.958.958 0 0 1-.84-.483Zm79.361.28h.01a.977.977 0 0 1-.366-1.322.964.964 0 0 1 1.311-.367.975.975 0 0 1 .366 1.322.969.969 0 0 1-.839.482 1.076 1.076 0 0 1-.483-.115Zm-72.716-3.762a.98.98 0 0 1 .482-1.283.975.975 0 0 1 1.283.492.972.972 0 0 1-.482 1.274 1.024 1.024 0 0 1-.405.087.969.969 0 0 1-.878-.57Zm66.1.405a.97.97 0 0 1-.482-1.274.963.963 0 0 1 1.273-.482.962.962 0 0 1 .493 1.274.98.98 0 0 1-.887.569 1.019 1.019 0 0 1-.399-.087ZM88.691 40.06a.972.972 0 0 1 .608-1.226.967.967 0 0 1 1.226.6.964.964 0 0 1-.6 1.226.926.926 0 0 1-.318.058.97.97 0 0 1-.916-.658Zm52.255.54a.956.956 0 0 1-.608-1.225.962.962 0 0 1 1.226-.6.957.957 0 0 1 .6 1.225.96.96 0 0 1-.906.646.831.831 0 0 1-.312-.046Zm-45.068-2.72a.974.974 0 0 1 .723-1.158.96.96 0 0 1 1.158.714.956.956 0 0 1-.714 1.157.861.861 0 0 1-.222.029.985.985 0 0 1-.945-.742Zm37.93.674h.009a.966.966 0 0 1-.724-1.157.974.974 0 0 1 1.158-.724h.009a.973.973 0 0 1 .714 1.167.967.967 0 0 1-.936.742.921.921 0 0 1-.23-.027Zm-30.57-2.16a.974.974 0 0 1 .82-1.091.957.957 0 0 1 1.091.82.961.961 0 0 1-.821 1.09.606.606 0 0 1-.135.009.965.965 0 0 1-.955-.827Zm23.286.79a.95.95 0 0 1-.824-1.084.965.965 0 0 1 1.081-.829h.009a.98.98 0 0 1 .82 1.09.966.966 0 0 1-.955.83.558.558 0 0 1-.131-.006ZM110.7 35.6a.975.975 0 0 1 .926-1.013h-.009a.969.969 0 0 1 1.013.917.957.957 0 0 1-.917 1.013h-.048a.971.971 0 0 1-.965-.917Zm8.431.906a.953.953 0 0 1-.917-1 .969.969 0 0 1 1-.927.964.964 0 0 1 .917 1.014.957.957 0 0 1-.955.916h-.048ZM114.427 186.947a1.09 1.09 0 0 1 1.091-1.09h.154a1.094 1.094 0 0 1 1.091 1.081 1.087 1.087 0 0 1-1.081 1.09h-.164a1.088 1.088 0 0 1-1.091-1.081Zm-6.482.685a1.069 1.069 0 0 1-.965-1.186 1.07 1.07 0 0 1 1.187-.965 1.083 1.083 0 0 1 .974 1.186 1.088 1.088 0 0 1-1.081.975.437.437 0 0 1-.115-.011Zm14.1-.974a1.093 1.093 0 0 1 .965-1.2 1.08 1.08 0 0 1 1.2.965 1.085 1.085 0 0 1-.965 1.2h-.116a1.085 1.085 0 0 1-1.081-.966Zm-21.589-.193a1.09 1.09 0 0 1-.839-1.292 1.087 1.087 0 0 1 1.283-.839 1.09 1.09 0 0 1 .839 1.292 1.083 1.083 0 0 1-1.062.859 1.606 1.606 0 0 1-.217-.021Zm28.988-.868a1.076 1.076 0 0 1 .83-1.292 1.089 1.089 0 0 1 1.293.839 1.085 1.085 0 0 1-.839 1.283.91.91 0 0 1-.221.029 1.083 1.083 0 0 1-1.06-.856Zm-36.318-1.09a1.093 1.093 0 0 1-.7-1.371 1.081 1.081 0 0 1 1.37-.694 1.079 1.079 0 0 1 .7 1.36 1.083 1.083 0 0 1-1.032.753 1.384 1.384 0 0 1-.335-.048Zm43.553-.743a1.085 1.085 0 0 1 .694-1.37 1.08 1.08 0 0 1 1.37.694 1.092 1.092 0 0 1-.694 1.37 1.28 1.28 0 0 1-.337.049 1.1 1.1 0 0 1-1.03-.744Zm-50.634-1.977a1.092 1.092 0 0 1-.549-1.438 1.091 1.091 0 0 1 1.437-.55 1.093 1.093 0 0 1 .55 1.438 1.091 1.091 0 0 1-.994.646 1.239 1.239 0 0 1-.441-.097Zm57.648-.608a1.085 1.085 0 0 1 .54-1.438 1.088 1.088 0 0 1 1.438.54 1.089 1.089 0 0 1-.55 1.438 1.016 1.016 0 0 1-.444.1 1.075 1.075 0 0 1-.977-.641Zm-64.4-2.837v-.009a1.077 1.077 0 0 1-.395-1.476 1.078 1.078 0 0 1 1.485-.4 1.084 1.084 0 0 1 .4 1.476 1.1 1.1 0 0 1-.945.55 1.1 1.1 0 0 1-.538-.141Zm71.095-.473a1.087 1.087 0 0 1 .4-1.486 1.079 1.079 0 0 1 1.476.4 1.075 1.075 0 0 1-.386 1.476 1.052 1.052 0 0 1-.55.154 1.076 1.076 0 0 1-.938-.544Zm-77.45-3.669a1.092 1.092 0 0 1-.241-1.514 1.074 1.074 0 0 1 1.515-.241 1.081 1.081 0 0 1 .241 1.514 1.084 1.084 0 0 1-.878.444 1.105 1.105 0 0 1-.637-.203Zm83.76-.328a1.075 1.075 0 0 1 .241-1.515 1.082 1.082 0 0 1 1.515.232 1.1 1.1 0 0 1-.241 1.524 1.112 1.112 0 0 1-.637.2 1.084 1.084 0 0 1-.876-.437Zm-89.654-4.447a1.084 1.084 0 0 1-.077-1.534 1.084 1.084 0 0 1 1.534-.077 1.073 1.073 0 0 1 .077 1.524 1.081 1.081 0 0 1-.81.366 1.115 1.115 0 0 1-.723-.276Zm95.519-.173a1.084 1.084 0 0 1 .077-1.534 1.085 1.085 0 0 1 1.534.077 1.093 1.093 0 0 1-.077 1.534 1.122 1.122 0 0 1-.733.28 1.1 1.1 0 0 1-.8-.354ZM61.69 164.065a1.084 1.084 0 0 1 .077-1.534 1.073 1.073 0 0 1 1.524.087 1.084 1.084 0 0 1-.077 1.534 1.069 1.069 0 0 1-.723.27 1.051 1.051 0 0 1-.801-.357Zm106.227-.029a1.093 1.093 0 0 1-.087-1.534 1.084 1.084 0 0 1 1.534-.077 1.093 1.093 0 0 1 .087 1.534 1.082 1.082 0 0 1-.81.357 1.036 1.036 0 0 1-.724-.28Zm-111.011-5.855a1.091 1.091 0 0 1 .241-1.515 1.08 1.08 0 0 1 1.515.232 1.085 1.085 0 0 1-.241 1.524 1.11 1.11 0 0 1-.637.2 1.1 1.1 0 0 1-.878-.441Zm115.786.119a1.088 1.088 0 0 1-.241-1.514 1.1 1.1 0 0 1 1.524-.241 1.091 1.091 0 0 1 .241 1.514 1.1 1.1 0 0 1-.887.454 1.051 1.051 0 0 1-.637-.213Zm-119.914-6.476a1.066 1.066 0 0 1 .395-1.475 1.077 1.077 0 0 1 1.476.4 1.077 1.077 0 0 1-.4 1.475.988.988 0 0 1-.54.145 1.064 1.064 0 0 1-.931-.545Zm124.072.27a1.1 1.1 0 0 1-.395-1.486 1.087 1.087 0 0 1 1.486-.4 1.1 1.1 0 0 1 .395 1.486 1.088 1.088 0 0 1-.935.541 1.113 1.113 0 0 1-.551-.141Zm-127.526-7.023v.01a1.089 1.089 0 0 1 .549-1.437 1.092 1.092 0 0 1 1.438.55 1.1 1.1 0 0 1-.55 1.437 1.2 1.2 0 0 1-.444.088 1.091 1.091 0 0 1-.993-.648Zm131.018.415a1.073 1.073 0 0 1-.549-1.428 1.083 1.083 0 0 1 1.427-.56 1.089 1.089 0 0 1 .55 1.438 1.083 1.083 0 0 1-.994.646 1.189 1.189 0 0 1-.434-.096ZM46.6 138a1.089 1.089 0 0 1 .694-1.371 1.089 1.089 0 0 1 1.37.7 1.088 1.088 0 0 1-.694 1.37 1.079 1.079 0 0 1-.337.057A1.1 1.1 0 0 1 46.6 138Zm136.51.55a1.088 1.088 0 0 1-.694-1.37 1.078 1.078 0 0 1 1.36-.694 1.075 1.075 0 0 1 .7 1.36 1.091 1.091 0 0 1-1.031.752 1.025 1.025 0 0 1-.335-.048Zm-138.465-7.871a1.092 1.092 0 0 1 .83-1.292 1.089 1.089 0 0 1 1.292.839 1.08 1.08 0 0 1-.839 1.283.964.964 0 0 1-.221.029 1.083 1.083 0 0 1-1.062-.859Zm140.492.685a1.09 1.09 0 0 1-.839-1.293 1.085 1.085 0 0 1 1.283-.839 1.086 1.086 0 0 1 .839 1.283h.009a1.11 1.11 0 0 1-1.071.869 1.731 1.731 0 0 1-.221-.021Zm-141.678-8.18a1.084 1.084 0 0 1 .974-1.184 1.076 1.076 0 0 1 1.187.965 1.078 1.078 0 0 1-.965 1.187.483.483 0 0 1-.116.009 1.086 1.086 0 0 1-1.08-.977Zm142.941.81a1.083 1.083 0 0 1-.974-1.186 1.1 1.1 0 0 1 1.2-.975 1.092 1.092 0 0 1 .965 1.2 1.088 1.088 0 0 1-1.081.974.445.445 0 0 1-.11-.013Zm-143.337-8.373a1.089 1.089 0 0 1 1.09-1.09 1.078 1.078 0 0 1 1.08 1.08 1.081 1.081 0 0 1-1.08 1.091 1.087 1.087 0 0 1-1.09-1.081Zm142.729-.164a1.081 1.081 0 0 1 1.09-1.081 1.073 1.073 0 0 1 1.081 1.081 1.081 1.081 0 0 1-1.081 1.09 1.1 1.1 0 0 1-1.09-1.09Zm-140.559.154Zm-.81-6.376a1.084 1.084 0 0 1-.974-1.187 1.084 1.084 0 0 1 1.2-.965 1.07 1.07 0 0 1 .965 1.187 1.084 1.084 0 0 1-1.07.974.483.483 0 0 1-.12-.009Zm140.983-1.119a1.085 1.085 0 0 1 .965-1.2 1.1 1.1 0 0 1 1.2.965 1.092 1.092 0 0 1-.965 1.2.482.482 0 0 1-.116.009 1.087 1.087 0 0 1-1.084-.974Zm-139.941-6.27a1.09 1.09 0 0 1-.839-1.293 1.086 1.086 0 0 1 1.283-.83 1.076 1.076 0 0 1 .839 1.283 1.082 1.082 0 0 1-1.062.858 1.76 1.76 0 0 1-.221-.018Zm138.784-.994a1.088 1.088 0 0 1 .838-1.283 1.074 1.074 0 0 1 1.283.83 1.084 1.084 0 0 1-.829 1.293 1.928 1.928 0 0 1-.232.02 1.089 1.089 0 0 1-1.06-.86ZM47.279 94.6a1.1 1.1 0 0 1-.7-1.37 1.1 1.1 0 0 1 1.37-.7 1.085 1.085 0 0 1 .7 1.37 1.074 1.074 0 0 1-1.033.753 1.305 1.305 0 0 1-.337-.053Zm135.06-.849a1.087 1.087 0 0 1 .694-1.37 1.088 1.088 0 0 1 1.37.694 1.081 1.081 0 0 1-.694 1.37 1.032 1.032 0 0 1-.337.058 1.1 1.1 0 0 1-1.033-.75ZM49.845 87.578a1.081 1.081 0 0 1-.55-1.427v-.01a1.089 1.089 0 0 1 1.427-.549 1.083 1.083 0 0 1 .55 1.437 1.069 1.069 0 0 1-.984.646 1.016 1.016 0 0 1-.443-.097Zm129.85-.685a1.081 1.081 0 0 1 .55-1.437 1.081 1.081 0 0 1 1.427.55 1.082 1.082 0 0 1-.54 1.427 1.049 1.049 0 0 1-.444.1 1.1 1.1 0 0 1-.988-.639ZM53.134 80.874a1.087 1.087 0 0 1-.395-1.486 1.087 1.087 0 0 1 1.486-.4 1.1 1.1 0 0 1 .395 1.486 1.091 1.091 0 0 1-.945.541 1.1 1.1 0 0 1-.541-.141Zm123.205-.53a1.078 1.078 0 0 1 .4-1.476 1.084 1.084 0 0 1 1.486.386 1.087 1.087 0 0 1-.4 1.486 1.01 1.01 0 0 1-.541.144 1.09 1.09 0 0 1-.945-.54Zm-119.231-5.8a1.091 1.091 0 0 1-.241-1.515 1.092 1.092 0 0 1 1.515-.241 1.083 1.083 0 0 1 .241 1.515 1.067 1.067 0 0 1-.878.453 1.057 1.057 0 0 1-.637-.21Zm115.218-.357a1.08 1.08 0 0 1 .232-1.515 1.079 1.079 0 0 1 1.514.232 1.092 1.092 0 0 1-.231 1.524 1.112 1.112 0 0 1-.637.2 1.083 1.083 0 0 1-.878-.439ZM61.719 68.672a1.085 1.085 0 0 1-.077-1.535 1.083 1.083 0 0 1 1.534-.076 1.08 1.08 0 0 1 .077 1.523v.01a1.106 1.106 0 0 1-.81.357 1.1 1.1 0 0 1-.724-.279Zm105.966-.193a1.084 1.084 0 0 1 .077-1.534 1.094 1.094 0 0 1 1.535.077 1.093 1.093 0 0 1-.077 1.534 1.077 1.077 0 0 1-.734.28 1.066 1.066 0 0 1-.8-.357ZM66.919 63.308A1.084 1.084 0 0 1 67 61.774a1.086 1.086 0 0 1 1.535.077 1.084 1.084 0 0 1-.077 1.534 1.124 1.124 0 0 1-.734.28 1.1 1.1 0 0 1-.805-.357Zm95.558-.019a1.085 1.085 0 0 1-.087-1.534 1.1 1.1 0 0 1 1.534-.088 1.1 1.1 0 0 1 .087 1.535 1.094 1.094 0 0 1-.81.367 1.084 1.084 0 0 1-.724-.28ZM72.64 58.514A1.089 1.089 0 0 1 72.881 57a1.079 1.079 0 0 1 1.514.232 1.08 1.08 0 0 1-.231 1.515h-.01a1.053 1.053 0 0 1-.636.212 1.1 1.1 0 0 1-.878-.445Zm84.117.145a1.072 1.072 0 0 1-.241-1.515 1.089 1.089 0 0 1 1.514-.241 1.092 1.092 0 0 1 .241 1.515 1.067 1.067 0 0 1-.878.453 1.053 1.053 0 0 1-.636-.212Zm-77.915-4.322a1.083 1.083 0 0 1 .386-1.486 1.087 1.087 0 0 1 1.486.4 1.087 1.087 0 0 1-.4 1.486 1.114 1.114 0 0 1-.541.144 1.064 1.064 0 0 1-.931-.544Zm71.741.318a1.078 1.078 0 0 1-.4-1.476 1.09 1.09 0 0 1 1.486-.405 1.1 1.1 0 0 1 .4 1.486 1.092 1.092 0 0 1-.946.541 1.11 1.11 0 0 1-.54-.146Zm-65.152-3.82a1.092 1.092 0 0 1 .55-1.438 1.091 1.091 0 0 1 1.437.55 1.093 1.093 0 0 1-.549 1.438 1.066 1.066 0 0 1-.444.1 1.093 1.093 0 0 1-.994-.65Zm58.6.482a1.082 1.082 0 0 1-.56-1.428 1.092 1.092 0 0 1 1.437-.549 1.078 1.078 0 0 1 .55 1.427 1.094 1.094 0 0 1-.994.646.976.976 0 0 1-.431-.095Zm-51.666-3.27a1.075 1.075 0 0 1 .685-1.371 1.078 1.078 0 0 1 1.37.7 1.081 1.081 0 0 1-.7 1.37 1.279 1.279 0 0 1-.337.048 1.073 1.073 0 0 1-1.016-.746Zm44.788.646h.01a1.086 1.086 0 0 1-.7-1.37 1.084 1.084 0 0 1 1.37-.7 1.078 1.078 0 0 1 .694 1.36 1.074 1.074 0 0 1-1.032.753 1.059 1.059 0 0 1-.34-.042ZM99.543 46a1.091 1.091 0 0 1 .839-1.293 1.086 1.086 0 0 1 1.283.839 1.086 1.086 0 0 1-.83 1.283h-.009a.805.805 0 0 1-.221.029A1.093 1.093 0 0 1 99.543 46Zm30.512.8a1.086 1.086 0 0 1-.839-1.283 1.076 1.076 0 0 1 1.283-.839 1.076 1.076 0 0 1 .839 1.283 1.082 1.082 0 0 1-1.061.858 1.633 1.633 0 0 1-.222-.019ZM106.9 44.719a1.085 1.085 0 0 1 .965-1.2 1.1 1.1 0 0 1 1.2.974 1.09 1.09 0 0 1-.974 1.187c-.039 0-.077.009-.116.009a1.084 1.084 0 0 1-1.075-.97Zm15.878.945a1.07 1.07 0 0 1-.965-1.186 1.076 1.076 0 0 1 1.187-.964 1.083 1.083 0 0 1 .974 1.186 1.086 1.086 0 0 1-1.08.974.483.483 0 0 1-.113-.01Zm-8.43-1.447a1.081 1.081 0 0 1 1.08-1.09h.01a1.079 1.079 0 0 1 1.081 1.081 1.081 1.081 0 0 1-1.081 1.09 1.087 1.087 0 0 1-1.087-1.081ZM115.614 179.393a.306.306 0 0 1-.1.01 1.206 1.206 0 0 1-1.206-1.206 1.206 1.206 0 0 1 1.206-1.206h.186a1.2 1.2 0 0 1 1.206 1.2 1.207 1.207 0 0 1-1.2 1.216.275.275 0 0 1-.092-.014Zm-7.64-.433a1.207 1.207 0 0 1-1.062-1.341 1.212 1.212 0 0 1 1.342-1.051 1.206 1.206 0 0 1 1.061 1.34 1.217 1.217 0 0 1-1.206 1.062.649.649 0 0 1-.135-.01Zm13.929-1.071a1.222 1.222 0 0 1 1.062-1.351 1.217 1.217 0 0 1 1.34 1.062 1.217 1.217 0 0 1-1.051 1.34c-.048 0-.1.009-.145.009a1.217 1.217 0 0 1-1.209-1.06Zm-21.376-.261v.01a1.213 1.213 0 0 1-.887-1.457 1.206 1.206 0 0 1 1.456-.9 1.213 1.213 0 0 1 .887 1.456 1.212 1.212 0 0 1-1.167.926.981.981 0 0 1-.288-.035Zm28.708-.926a1.2 1.2 0 0 1 .878-1.456h.009a1.212 1.212 0 0 1 1.456.887 1.212 1.212 0 0 1-.887 1.456 1.433 1.433 0 0 1-.289.029 1.2 1.2 0 0 1-1.167-.918Zm-35.943-1.273a1.2 1.2 0 0 1-.7-1.553 1.2 1.2 0 0 1 1.543-.714 1.208 1.208 0 0 1 .714 1.553 1.223 1.223 0 0 1-1.129.791 1.319 1.319 0 0 1-.427-.077Zm43.071-.772a1.2 1.2 0 0 1 .7-1.553 1.209 1.209 0 0 1 1.552.7 1.211 1.211 0 0 1-.7 1.553 1.373 1.373 0 0 1-.425.077 1.2 1.2 0 0 1-1.126-.776Zm-49.987-2.286a1.191 1.191 0 0 1-.521-1.621 1.213 1.213 0 0 1 1.62-.521A1.2 1.2 0 0 1 88 171.85a1.19 1.19 0 0 1-1.071.656 1.133 1.133 0 0 1-.553-.135Zm56.817-.6a1.224 1.224 0 0 1 .521-1.631 1.21 1.21 0 0 1 1.62.521 1.21 1.21 0 0 1-.511 1.631 1.253 1.253 0 0 1-.55.135 1.222 1.222 0 0 1-1.08-.654Zm-63.328-3.251a1.2 1.2 0 0 1-.318-1.669 1.189 1.189 0 0 1 1.668-.328 1.219 1.219 0 0 1 .328 1.679 1.241 1.241 0 0 1-1 .53 1.19 1.19 0 0 1-.678-.21Zm69.772-.415a1.209 1.209 0 0 1 .318-1.679 1.209 1.209 0 0 1 1.679.318 1.209 1.209 0 0 1-.318 1.678 1.174 1.174 0 0 1-.675.2 1.22 1.22 0 0 1-1.004-.514Zm-75.773-4.177v.009a1.211 1.211 0 0 1-.135-1.708 1.216 1.216 0 0 1 1.707-.125 1.206 1.206 0 0 1 .125 1.7 1.211 1.211 0 0 1-.916.424 1.153 1.153 0 0 1-.781-.297Zm81.744-.232a1.2 1.2 0 0 1 .116-1.7 1.207 1.207 0 0 1 1.707.116 1.2 1.2 0 0 1-.125 1.7v.009a1.23 1.23 0 0 1-.79.289 1.2 1.2 0 0 1-.907-.41Zm-87.175-5.026a1.216 1.216 0 0 1 .077-1.708 1.2 1.2 0 0 1 1.7.077 1.2 1.2 0 0 1-.067 1.7 1.2 1.2 0 0 1-.821.317 1.208 1.208 0 0 1-.889-.383Zm92.577-.058a1.2 1.2 0 0 1-.077-1.7 1.208 1.208 0 0 1 1.708-.077 1.2 1.2 0 0 1 .077 1.7 1.221 1.221 0 0 1-.9.4 1.193 1.193 0 0 1-.808-.32Zm-97.342-5.807a1.222 1.222 0 0 1 .269-1.688 1.213 1.213 0 0 1 1.688.28 1.2 1.2 0 0 1-.28 1.679 1.18 1.18 0 0 1-.694.231 1.2 1.2 0 0 1-.983-.499Zm102.117.135a1.218 1.218 0 0 1-.28-1.688 1.205 1.205 0 0 1 1.679-.28 1.207 1.207 0 0 1 .289 1.688h-.009a1.2 1.2 0 0 1-.984.5 1.232 1.232 0 0 1-.695-.217Zm-106.159-6.518a1.2 1.2 0 0 1 .473-1.64 1.209 1.209 0 0 1 1.64.473 1.218 1.218 0 0 1-.473 1.64 1.261 1.261 0 0 1-.579.144 1.215 1.215 0 0 1-1.061-.617Zm110.23.318a1.2 1.2 0 0 1-.472-1.64 1.187 1.187 0 0 1 1.63-.473 1.2 1.2 0 0 1 .482 1.631 1.205 1.205 0 0 1-1.061.627 1.262 1.262 0 0 1-.579-.145Zm-113.49-7.14a1.208 1.208 0 0 1 .665-1.572 1.209 1.209 0 0 1 1.573.666 1.208 1.208 0 0 1-.666 1.572 1.229 1.229 0 0 1-.453.087 1.208 1.208 0 0 1-1.119-.753Zm116.8.493a1.209 1.209 0 0 1-.666-1.573 1.2 1.2 0 0 1 1.572-.665 1.208 1.208 0 0 1 .666 1.572 1.223 1.223 0 0 1-1.119.753 1.225 1.225 0 0 1-.454-.086Zm-119.221-7.65a1.213 1.213 0 0 1 .849-1.486 1.2 1.2 0 0 1 1.475.849 1.2 1.2 0 0 1-.849 1.476 1.2 1.2 0 0 1-.318.048 1.2 1.2 0 0 1-1.157-.886Zm121.719.657a1.191 1.191 0 0 1-.849-1.476 1.2 1.2 0 0 1 1.476-.849 1.211 1.211 0 0 1 .849 1.475 1.214 1.214 0 0 1-1.167.9 1.232 1.232 0 0 1-.309-.05Zm-123.273-8.055a1.208 1.208 0 0 1 1.013-1.37 1.207 1.207 0 0 1 1.37 1.013 1.2 1.2 0 0 1-1.013 1.37.992.992 0 0 1-.183.02 1.2 1.2 0 0 1-1.187-1.033Zm124.912.83a1.215 1.215 0 0 1-1.023-1.37 1.215 1.215 0 0 1 1.37-1.023 1.215 1.215 0 0 1 1.023 1.37 1.212 1.212 0 0 1-1.2 1.032 1.071 1.071 0 0 1-.173-.009Zm-125.587-8.354a1.216 1.216 0 0 1 1.177-1.245 1.2 1.2 0 0 1 1.235 1.167 1.206 1.206 0 0 1-1.167 1.245h-.039a1.218 1.218 0 0 1-1.206-1.167Zm126.359.979a1.2 1.2 0 0 1-1.167-1.234 1.2 1.2 0 0 1 1.235-1.178 1.207 1.207 0 0 1 1.177 1.235 1.213 1.213 0 0 1-1.206 1.177h-.039Zm-125.047-7.23a1.2 1.2 0 0 1-1.09-1.3 1.2 1.2 0 0 1 1.3-1.1 1.2 1.2 0 0 1 1.1 1.3 1.206 1.206 0 0 1-1.206 1.1h-.104Zm123.648-1.282a1.21 1.21 0 0 1 1.09-1.312 1.21 1.21 0 0 1 1.312 1.09 1.2 1.2 0 0 1-1.09 1.312c-.039 0-.077.01-.106.01a1.208 1.208 0 0 1-1.206-1.1Zm-122.7-6.078a1.2 1.2 0 0 1-.935-1.427 1.21 1.21 0 0 1 1.428-.936 1.22 1.22 0 0 1 .935 1.427 1.221 1.221 0 0 1-1.177.965 1.027 1.027 0 0 1-.254-.029Zm121.624-1.119a1.209 1.209 0 0 1 .926-1.428 1.218 1.218 0 0 1 1.438.935 1.214 1.214 0 0 1-.935 1.428 1.08 1.08 0 0 1-.251.019 1.2 1.2 0 0 1-1.178-.954ZM55.777 96.713a1.216 1.216 0 0 1-.762-1.534 1.212 1.212 0 0 1 1.534-.753 1.2 1.2 0 0 1 .753 1.524 1.2 1.2 0 0 1-1.138.821 1.336 1.336 0 0 1-.387-.058Zm117.889-.935a1.2 1.2 0 0 1 .753-1.524 1.2 1.2 0 0 1 1.534.753 1.2 1.2 0 0 1-.753 1.524 1.087 1.087 0 0 1-.385.067 1.219 1.219 0 0 1-1.148-.82Zm-115.237-6a1.19 1.19 0 0 1-.569-1.6 1.19 1.19 0 0 1 1.6-.569 1.19 1.19 0 0 1 .569 1.6 1.194 1.194 0 0 1-1.081.685 1.112 1.112 0 0 1-.518-.116Zm112.488-.733a1.2 1.2 0 0 1 .569-1.6A1.207 1.207 0 0 1 173.1 88a1.22 1.22 0 0 1-.569 1.611 1.272 1.272 0 0 1-.521.116 1.208 1.208 0 0 1-1.092-.682ZM61.883 83.219a1.214 1.214 0 0 1-.376-1.669 1.213 1.213 0 0 1 1.668-.376 1.21 1.21 0 0 1 .366 1.668h.01a1.23 1.23 0 0 1-1.023.56 1.22 1.22 0 0 1-.645-.183Zm105.517-.532a1.2 1.2 0 0 1 .366-1.659 1.2 1.2 0 0 1 1.66.367h.009a1.215 1.215 0 0 1-.376 1.669 1.221 1.221 0 0 1-.647.183 1.179 1.179 0 0 1-1.012-.56ZM66.09 77.1a1.208 1.208 0 0 1-.174-1.7 1.208 1.208 0 0 1 1.7-.173 1.207 1.207 0 0 1 .173 1.7 1.223 1.223 0 0 1-.935.444 1.186 1.186 0 0 1-.764-.271Zm97.043-.308a1.218 1.218 0 0 1 .174-1.7 1.2 1.2 0 0 1 1.7.174 1.2 1.2 0 0 1-.174 1.7 1.185 1.185 0 0 1-.762.27 1.223 1.223 0 0 1-.938-.442ZM70.99 71.536a1.214 1.214 0 0 1 .019-1.708h.009a1.2 1.2 0 0 1 1.7.02 1.214 1.214 0 0 1-.02 1.707 1.181 1.181 0 0 1-.839.338 1.192 1.192 0 0 1-.869-.357Zm87.223-.1a1.206 1.206 0 0 1-.029-1.708 1.206 1.206 0 0 1 1.708-.029 1.215 1.215 0 0 1 .028 1.708 1.219 1.219 0 0 1-.868.367 1.225 1.225 0 0 1-.839-.334Zm-81.705-4.857a1.212 1.212 0 0 1 .222-1.7 1.215 1.215 0 0 1 1.7.232 1.212 1.212 0 0 1-.23 1.689 1.2 1.2 0 0 1-.733.251 1.216 1.216 0 0 1-.959-.472Zm76.192.114a1.2 1.2 0 0 1-.222-1.688 1.2 1.2 0 0 1 1.688-.231 1.2 1.2 0 0 1 .222 1.688 1.171 1.171 0 0 1-.955.482 1.217 1.217 0 0 1-.733-.251ZM82.566 62.3a1.206 1.206 0 0 1 .424-1.649 1.2 1.2 0 0 1 1.65.415 1.2 1.2 0 0 1-.415 1.65 1.205 1.205 0 0 1-.617.173 1.218 1.218 0 0 1-1.042-.589Zm64.091.328a1.208 1.208 0 0 1-.424-1.65 1.208 1.208 0 0 1 1.649-.424 1.19 1.19 0 0 1 .424 1.649 1.193 1.193 0 0 1-1.032.6 1.2 1.2 0 0 1-.618-.171ZM89.1 58.774a1.2 1.2 0 0 1 .608-1.591 1.21 1.21 0 0 1 1.592.617 1.2 1.2 0 0 1-.617 1.592 1.219 1.219 0 0 1-.482.105 1.194 1.194 0 0 1-1.101-.723Zm51.088.541a1.2 1.2 0 0 1-.617-1.583 1.19 1.19 0 0 1 1.582-.617 1.2 1.2 0 0 1 .627 1.582 1.216 1.216 0 0 1-1.11.723 1.2 1.2 0 0 1-.486-.106Zm-44.19-3.26a1.191 1.191 0 0 1 .8-1.505 1.2 1.2 0 0 1 1.5.791 1.22 1.22 0 0 1-.8 1.515 1.554 1.554 0 0 1-.357.048 1.208 1.208 0 0 1-1.147-.85Zm37.36.742a1.206 1.206 0 0 1-.8-1.5 1.2 1.2 0 0 1 1.505-.8 1.2 1.2 0 0 1 .8 1.495 1.2 1.2 0 0 1-1.148.858 1.567 1.567 0 0 1-.361-.05Zm-30.193-2.633a1.2 1.2 0 0 1 .974-1.4 1.2 1.2 0 0 1 1.4.974 1.2 1.2 0 0 1-.965 1.4 1.739 1.739 0 0 1-.221.019 1.207 1.207 0 0 1-1.192-.994Zm23.122.945a1.2 1.2 0 0 1-.974-1.4 1.212 1.212 0 0 1 1.4-.983 1.21 1.21 0 0 1 .974 1.4 1.2 1.2 0 0 1-1.186.993 1.669 1.669 0 0 1-.218-.011Zm-15.776-1.969a1.2 1.2 0 0 1 1.128-1.273A1.221 1.221 0 0 1 112.923 53a1.23 1.23 0 0 1-1.138 1.283h-.068a1.206 1.206 0 0 1-1.206-1.143Zm8.547 1.119A1.2 1.2 0 0 1 117.93 53a1.208 1.208 0 0 1 1.273-1.139h-.009a1.208 1.208 0 0 1 1.138 1.274 1.213 1.213 0 0 1-1.206 1.138.189.189 0 0 1-.068-.013ZM115.624 170.77a.4.4 0 0 1-.105.009 1.334 1.334 0 0 1-1.332-1.331 1.326 1.326 0 0 1 1.332-1.322h.2a1.318 1.318 0 0 1 1.331 1.312 1.34 1.34 0 0 1-1.322 1.34.409.409 0 0 1-.104-.008Zm-7.62-.5a1.334 1.334 0 0 1-1.139-1.5 1.325 1.325 0 0 1 1.495-1.129 1.318 1.318 0 0 1 1.139 1.486 1.328 1.328 0 0 1-1.312 1.148 1.145 1.145 0 0 1-.187-.007Zm13.736-1.157a1.328 1.328 0 0 1 1.129-1.5 1.336 1.336 0 0 1 1.505 1.129 1.333 1.333 0 0 1-1.129 1.5h-.009a1.143 1.143 0 0 1-.184.009 1.328 1.328 0 0 1-1.313-1.14Zm-21.106-.367a1.328 1.328 0 0 1-.926-1.63 1.343 1.343 0 0 1 1.64-.926 1.329 1.329 0 0 1 .917 1.64 1.329 1.329 0 0 1-1.274.965 1.138 1.138 0 0 1-.358-.051Zm28.332-.974a1.321 1.321 0 0 1 .917-1.63 1.324 1.324 0 0 1 1.64.906 1.33 1.33 0 0 1-.917 1.64 1.138 1.138 0 0 1-.357.048 1.336 1.336 0 0 1-1.284-.967Zm-35.431-1.543a1.332 1.332 0 0 1-.7-1.746 1.332 1.332 0 0 1 1.747-.694v.009a1.328 1.328 0 0 1 .694 1.747 1.349 1.349 0 0 1-1.225.79 1.4 1.4 0 0 1-.517-.109Zm42.415-.772a1.325 1.325 0 0 1 .675-1.746 1.329 1.329 0 0 1 1.755.685 1.33 1.33 0 0 1-.685 1.747 1.3 1.3 0 0 1-.53.106 1.31 1.31 0 0 1-1.216-.794Zm-49.11-2.7a1.328 1.328 0 0 1-.434-1.823 1.311 1.311 0 0 1 1.813-.444 1.322 1.322 0 0 1 .444 1.823 1.3 1.3 0 0 1-1.129.637 1.3 1.3 0 0 1-.695-.197Zm55.7-.54a1.327 1.327 0 0 1 .434-1.823 1.32 1.32 0 0 1 1.823.433 1.32 1.32 0 0 1-.434 1.824 1.284 1.284 0 0 1-.694.193 1.324 1.324 0 0 1-1.131-.631ZM80.694 158.4a1.32 1.32 0 0 1-.193-1.862 1.321 1.321 0 0 1 1.862-.193h.009a1.339 1.339 0 0 1 .183 1.872 1.313 1.313 0 0 1-1.022.482 1.3 1.3 0 0 1-.839-.299Zm67.93-.309a1.328 1.328 0 0 1 .184-1.861 1.33 1.33 0 0 1 1.871.184 1.339 1.339 0 0 1-.183 1.871 1.337 1.337 0 0 1-.839.3 1.342 1.342 0 0 1-1.033-.491Zm-73.438-4.823a1.327 1.327 0 0 1 .068-1.88 1.333 1.333 0 0 1 1.871.067 1.325 1.325 0 0 1-.058 1.872 1.335 1.335 0 0 1-.907.357 1.322 1.322 0 0 1-.974-.413Zm78.918-.076a1.317 1.317 0 0 1-.068-1.872 1.317 1.317 0 0 1 1.871-.068 1.316 1.316 0 0 1 .068 1.872 1.33 1.33 0 0 1-.974.424 1.292 1.292 0 0 1-.901-.354Zm-83.674-5.76a1.329 1.329 0 0 1 .318-1.852 1.33 1.33 0 0 1 1.852.318 1.338 1.338 0 0 1-.318 1.852 1.33 1.33 0 0 1-.771.241 1.318 1.318 0 0 1-1.081-.556Zm88.438.155a1.327 1.327 0 0 1-.328-1.843 1.33 1.33 0 0 1 1.852-.318 1.316 1.316 0 0 1 .318 1.843 1.306 1.306 0 0 1-1.08.56 1.3 1.3 0 0 1-.761-.24Zm-92.355-6.577a1.335 1.335 0 0 1 .56-1.794 1.336 1.336 0 0 1 1.794.569 1.319 1.319 0 0 1-.569 1.784 1.261 1.261 0 0 1-.608.154 1.317 1.317 0 0 1-1.177-.713Zm96.311.386a1.327 1.327 0 0 1-.57-1.784 1.32 1.32 0 0 1 1.785-.57 1.327 1.327 0 0 1 .578 1.785 1.342 1.342 0 0 1-1.186.714 1.375 1.375 0 0 1-.606-.141ZM63.5 134.1a1.314 1.314 0 0 1 .8-1.688 1.321 1.321 0 0 1 1.7.8 1.318 1.318 0 0 1-.8 1.688 1.239 1.239 0 0 1-.454.077 1.325 1.325 0 0 1-1.246-.877Zm102.407.617a1.326 1.326 0 0 1-.81-1.7 1.327 1.327 0 0 1 1.688-.81 1.329 1.329 0 0 1 .81 1.7 1.336 1.336 0 0 1-1.254.887 1.382 1.382 0 0 1-.43-.073Zm-104.438-7.868a1.321 1.321 0 0 1 1.032-1.563 1.313 1.313 0 0 1 1.562 1.032 1.314 1.314 0 0 1-1.022 1.563 1.4 1.4 0 0 1-.28.028 1.334 1.334 0 0 1-1.292-1.06Zm106.574.83a1.328 1.328 0 0 1-1.043-1.563 1.338 1.338 0 0 1 1.573-1.042 1.338 1.338 0 0 1 1.031 1.572 1.329 1.329 0 0 1-1.3 1.061 1.239 1.239 0 0 1-.261-.028Zm-107.6-8.286a1.32 1.32 0 0 1 1.235-1.408 1.326 1.326 0 0 1 1.418 1.225h-.007a1.321 1.321 0 0 1-1.225 1.418h-.1a1.321 1.321 0 0 1-1.318-1.235Zm108.745 1.022a1.321 1.321 0 0 1-1.235-1.408 1.327 1.327 0 0 1 1.408-1.235 1.327 1.327 0 0 1 1.235 1.408 1.328 1.328 0 0 1-1.322 1.244c-.026 0-.054-.009-.083-.009Zm-107.51-7.139a1.328 1.328 0 0 1-1.244-1.408 1.328 1.328 0 0 1 1.418-1.234 1.327 1.327 0 0 1 1.235 1.408 1.336 1.336 0 0 1-1.322 1.244c-.026.001-.055-.01-.084-.01Zm106.246-1.437a1.33 1.33 0 0 1 1.235-1.419 1.335 1.335 0 0 1 1.418 1.235 1.325 1.325 0 0 1-1.234 1.408.309.309 0 0 1-.1.009 1.341 1.341 0 0 1-1.316-1.232Zm-105.442-5.864a1.326 1.326 0 0 1-1.032-1.563v-.012a1.328 1.328 0 0 1 1.563-1.032 1.323 1.323 0 0 1 1.032 1.572 1.329 1.329 0 0 1-1.3 1.061 1.218 1.218 0 0 1-.263-.026Zm104.462-1.235a1.329 1.329 0 0 1 1.022-1.572 1.328 1.328 0 0 1 1.573 1.022 1.32 1.32 0 0 1-1.023 1.572 1.316 1.316 0 0 1-.27.029 1.328 1.328 0 0 1-1.303-1.051Zm-102.667-5.9a1.322 1.322 0 0 1-.81-1.688 1.333 1.333 0 0 1 1.7-.81 1.341 1.341 0 0 1 .81 1.7 1.328 1.328 0 0 1-1.254.878 1.182 1.182 0 0 1-.447-.084ZM165 97.842a1.331 1.331 0 0 1 .8-1.7 1.337 1.337 0 0 1 1.7.8 1.328 1.328 0 0 1-.8 1.7 1.188 1.188 0 0 1-.444.077 1.326 1.326 0 0 1-1.256-.877Zm-97.966-5.827a1.319 1.319 0 0 1-.569-1.784 1.327 1.327 0 0 1 1.785-.569 1.319 1.319 0 0 1 .569 1.784v.01a1.318 1.318 0 0 1-1.177.713 1.261 1.261 0 0 1-.608-.154Zm95.086-.733v-.009a1.324 1.324 0 0 1 .56-1.784 1.337 1.337 0 0 1 1.794.559 1.338 1.338 0 0 1-.559 1.795 1.439 1.439 0 0 1-.618.145 1.337 1.337 0 0 1-1.177-.705ZM70.7 85.64a1.316 1.316 0 0 1-.318-1.843 1.315 1.315 0 0 1 1.842-.318 1.316 1.316 0 0 1 .318 1.843 1.314 1.314 0 0 1-1.08.569 1.329 1.329 0 0 1-.762-.251Zm87.676-.473a1.327 1.327 0 0 1 .309-1.852 1.329 1.329 0 0 1 1.852.318 1.337 1.337 0 0 1-.309 1.852 1.351 1.351 0 0 1-.772.241 1.318 1.318 0 0 1-1.079-.559ZM75.2 79.823a1.316 1.316 0 0 1-.067-1.871A1.324 1.324 0 0 1 77 77.884a1.316 1.316 0 0 1 .068 1.871 1.331 1.331 0 0 1-.974.425 1.3 1.3 0 0 1-.894-.357Zm78.638-.2a1.326 1.326 0 0 1 .058-1.872 1.328 1.328 0 0 1 1.881.058 1.324 1.324 0 0 1-.057 1.871 1.348 1.348 0 0 1-.907.367 1.33 1.33 0 0 1-.979-.427Zm-73.4-4.949a1.332 1.332 0 0 1 .192-1.872 1.322 1.322 0 0 1 1.862.193 1.328 1.328 0 0 1-.184 1.861 1.329 1.329 0 0 1-.839.3 1.33 1.33 0 0 1-1.035-.484Zm68.152.068a1.321 1.321 0 0 1-.193-1.862 1.33 1.33 0 0 1 1.862-.2 1.333 1.333 0 0 1 .193 1.872 1.34 1.34 0 0 1-1.032.492 1.292 1.292 0 0 1-.834-.305Zm-62.272-4.47a1.331 1.331 0 0 1 .444-1.823 1.323 1.323 0 0 1 1.823.444 1.324 1.324 0 0 1-.444 1.824 1.362 1.362 0 0 1-.685.192 1.335 1.335 0 0 1-1.138-.637Zm56.4.338a1.321 1.321 0 0 1-.444-1.823 1.338 1.338 0 0 1 1.824-.445 1.332 1.332 0 0 1 .444 1.824 1.318 1.318 0 0 1-1.139.637 1.28 1.28 0 0 1-.682-.193Zm-49.966-3.887a1.338 1.338 0 0 1 .685-1.756 1.332 1.332 0 0 1 1.747.7 1.33 1.33 0 0 1-.685 1.746 1.445 1.445 0 0 1-.531.106 1.327 1.327 0 0 1-1.216-.796Zm43.6.6a1.319 1.319 0 0 1-.694-1.736 1.326 1.326 0 0 1 1.746-.694 1.314 1.314 0 0 1 .685 1.746 1.326 1.326 0 0 1-1.215.791 1.229 1.229 0 0 1-.52-.109ZM99.611 64.07a1.314 1.314 0 0 1 .917-1.63 1.329 1.329 0 0 1 1.639.916 1.335 1.335 0 0 1-.926 1.64l.01-.01a1.212 1.212 0 0 1-.367.057 1.325 1.325 0 0 1-1.273-.973Zm29.981.869a1.318 1.318 0 0 1-.926-1.631 1.313 1.313 0 0 1 1.63-.926 1.328 1.328 0 0 1 .926 1.631 1.329 1.329 0 0 1-1.283.974 1.461 1.461 0 0 1-.347-.049Zm-22.824-2.547a1.325 1.325 0 0 1 1.129-1.5 1.322 1.322 0 0 1 1.495 1.139 1.325 1.325 0 0 1-1.128 1.5 1.191 1.191 0 0 1-.183.009 1.321 1.321 0 0 1-1.312-1.149Zm15.8 1.11a1.328 1.328 0 0 1-1.138-1.5 1.325 1.325 0 0 1 1.486-1.139 1.335 1.335 0 0 1 1.138 1.5 1.321 1.321 0 0 1-1.312 1.147 1.071 1.071 0 0 1-.173-.01Zm-7.158-.473a1.331 1.331 0 0 1-1.331-1.322 1.334 1.334 0 0 1 1.331-1.331 1.332 1.332 0 0 1 1.322 1.331 1.324 1.324 0 0 1-1.322 1.322Zm0-2.653ZM114.071 160.708a1.446 1.446 0 0 1 1.447-1.447h.076c.039 0 .077-.009.106-.009a1.459 1.459 0 0 1 1.456 1.447 1.445 1.445 0 0 1-1.447 1.447h-.192v.009a1.451 1.451 0 0 1-1.446-1.447Zm-6.213.811a1.444 1.444 0 0 1-1.2-1.66 1.458 1.458 0 0 1 1.669-1.2 1.45 1.45 0 0 1 1.186 1.668 1.446 1.446 0 0 1-1.418 1.215 1.056 1.056 0 0 1-.236-.023ZM121.7 160.3a1.449 1.449 0 0 1 1.187-1.668 1.451 1.451 0 0 1 1.668 1.186 1.443 1.443 0 0 1-1.186 1.669 1.044 1.044 0 0 1-.241.019 1.448 1.448 0 0 1-1.428-1.206Zm-21.3-.656a1.455 1.455 0 0 1-.9-1.843 1.436 1.436 0 0 1 1.833-.9 1.448 1.448 0 0 1 .906 1.833 1.467 1.467 0 0 1-1.37.983 1.621 1.621 0 0 1-.469-.07Zm28.573-.965a1.459 1.459 0 0 1 .9-1.843 1.451 1.451 0 0 1 1.843.9 1.446 1.446 0 0 1-.9 1.842 1.592 1.592 0 0 1-.473.077 1.459 1.459 0 0 1-1.369-.972Zm-35.613-2.128a1.451 1.451 0 0 1-.588-1.959A1.459 1.459 0 0 1 94.74 154a1.448 1.448 0 0 1 .578 1.968 1.444 1.444 0 0 1-1.274.752 1.448 1.448 0 0 1-.684-.169Zm42.522-.666a1.453 1.453 0 0 1 .569-1.967 1.447 1.447 0 0 1 1.968.578 1.448 1.448 0 0 1-.578 1.968 1.441 1.441 0 0 1-.685.173 1.446 1.446 0 0 1-1.275-.752Zm-48.956-3.54a1.436 1.436 0 0 1-.251-2.035 1.441 1.441 0 0 1 2.025-.251 1.453 1.453 0 0 1 .251 2.035 1.459 1.459 0 0 1-1.139.55 1.43 1.43 0 0 1-.886-.299Zm55.3-.367a1.442 1.442 0 0 1 .241-2.025 1.446 1.446 0 0 1 2.036.241 1.449 1.449 0 0 1-.251 2.036 1.461 1.461 0 0 1-.888.308 1.439 1.439 0 0 1-1.135-.56Zm-60.966-4.842a1.449 1.449 0 0 1 .087-2.045 1.447 1.447 0 0 1 2.045.087 1.448 1.448 0 0 1-.087 2.045 1.455 1.455 0 0 1-.974.376 1.458 1.458 0 0 1-1.068-.463Zm66.59-.048a1.44 1.44 0 0 1-.1-2.045 1.447 1.447 0 0 1 2.045-.087 1.449 1.449 0 0 1 .1 2.044h-.009a1.444 1.444 0 0 1-1.062.473 1.406 1.406 0 0 1-.971-.385Zm-71.316-6.01a1.455 1.455 0 0 1 .415-2.007 1.454 1.454 0 0 1 2.006.415 1.446 1.446 0 0 1-.414 2.007 1.435 1.435 0 0 1-.791.241 1.452 1.452 0 0 1-1.213-.656Zm76.062.261a1.43 1.43 0 0 1-.424-2 1.438 1.438 0 0 1 2-.425 1.448 1.448 0 0 1 .425 2.007 1.442 1.442 0 0 1-1.215.657 1.381 1.381 0 0 1-.782-.239Zm-79.727-7.013a1.453 1.453 0 0 1 .742-1.91 1.439 1.439 0 0 1 1.9.742 1.45 1.45 0 0 1-.733 1.91 1.615 1.615 0 0 1-.589.115 1.447 1.447 0 0 1-1.318-.858Zm83.47.569a1.443 1.443 0 0 1-.752-1.91 1.439 1.439 0 0 1 1.9-.743 1.446 1.446 0 0 1 .753 1.9 1.456 1.456 0 0 1-1.332.877 1.478 1.478 0 0 1-.567-.125Zm-85.969-7.842a1.435 1.435 0 0 1 1.042-1.756 1.439 1.439 0 0 1 1.756 1.042 1.448 1.448 0 0 1-1.042 1.765 1.538 1.538 0 0 1-.357.039 1.441 1.441 0 0 1-1.397-1.091Zm88.594.858a1.44 1.44 0 0 1-1.062-1.746v-.009a1.447 1.447 0 0 1 1.756-1.051 1.451 1.451 0 0 1 1.051 1.755 1.449 1.449 0 0 1-1.4 1.1 1.412 1.412 0 0 1-.343-.05Zm-89.857-8.441a1.441 1.441 0 0 1 1.322-1.562 1.444 1.444 0 0 1 1.552 1.321 1.441 1.441 0 0 1-1.321 1.563c-.039 0-.077.01-.116.01a1.448 1.448 0 0 1-1.435-1.333Zm91.284 1.129a1.441 1.441 0 0 1-1.331-1.553 1.447 1.447 0 0 1 1.553-1.331 1.453 1.453 0 0 1 1.331 1.552 1.453 1.453 0 0 1-1.447 1.341c-.027 0-.065-.008-.104-.008Zm-89.972-7.255a1.442 1.442 0 0 1-1.322-1.563 1.44 1.44 0 0 1 1.552-1.322 1.45 1.45 0 0 1 1.331 1.563v-.009a1.449 1.449 0 0 1-1.447 1.331h-.112Zm88.612-1.515a1.454 1.454 0 0 1 1.322-1.562 1.441 1.441 0 0 1 1.563 1.321 1.446 1.446 0 0 1-1.312 1.563h-.124a1.456 1.456 0 0 1-1.447-1.322ZM71.4 105.955a1.451 1.451 0 0 1-1.051-1.755 1.451 1.451 0 0 1 1.755-1.052 1.451 1.451 0 0 1 1.046 1.752 1.451 1.451 0 0 1-1.408 1.1 1.424 1.424 0 0 1-.342-.045Zm86.441-1.234a1.447 1.447 0 0 1 1.042-1.756 1.453 1.453 0 0 1 1.765 1.042 1.444 1.444 0 0 1-1.042 1.755 1.2 1.2 0 0 1-.366.049 1.442 1.442 0 0 1-1.404-1.09Zm-84.266-5.895a1.451 1.451 0 0 1-.742-1.91 1.439 1.439 0 0 1 1.9-.742 1.455 1.455 0 0 1 .753 1.91 1.453 1.453 0 0 1-1.332.859 1.548 1.548 0 0 1-.579-.117Zm81.9-.917a1.456 1.456 0 0 1 .741-1.909 1.458 1.458 0 0 1 1.91.742 1.458 1.458 0 0 1-.743 1.91 1.562 1.562 0 0 1-.578.115 1.451 1.451 0 0 1-1.331-.857Zm-78.562-5.758a1.438 1.438 0 0 1-.424-2 1.446 1.446 0 0 1 2-.424 1.447 1.447 0 0 1 .425 2.006 1.45 1.45 0 0 1-1.206.657 1.389 1.389 0 0 1-.795-.239Zm75.108-.569a1.444 1.444 0 0 1 .414-2 1.446 1.446 0 0 1 2.006.405 1.446 1.446 0 0 1-.414 2.013 1.41 1.41 0 0 1-.791.241 1.454 1.454 0 0 1-1.216-.659Zm-70.729-5.451a1.447 1.447 0 0 1-.087-2.045A1.431 1.431 0 0 1 83.251 84a1.438 1.438 0 0 1 .087 2.036 1.408 1.408 0 0 1-1.061.472 1.463 1.463 0 0 1-.985-.377Zm66.281-.221a1.457 1.457 0 0 1 .077-2.045 1.468 1.468 0 0 1 2.055.077 1.446 1.446 0 0 1-.087 2.044 1.425 1.425 0 0 1-.984.386 1.451 1.451 0 0 1-1.061-.462Zm-60.966-5.016a1.444 1.444 0 0 1 .241-2.026 1.446 1.446 0 0 1 2.036.251 1.444 1.444 0 0 1-.251 2.025 1.405 1.405 0 0 1-.887.309 1.426 1.426 0 0 1-1.139-.559Zm55.651.144A1.463 1.463 0 0 1 142 79a1.456 1.456 0 0 1 2.036-.252 1.454 1.454 0 0 1 .26 2.026 1.428 1.428 0 0 1-1.147.56 1.447 1.447 0 0 1-.891-.296ZM92.695 76.61a1.452 1.452 0 0 1 .588-1.968 1.451 1.451 0 0 1 1.958.589 1.449 1.449 0 0 1-.578 1.959 1.525 1.525 0 0 1-.7.173 1.444 1.444 0 0 1-1.268-.753Zm43.525.49a1.437 1.437 0 0 1-.589-1.958 1.437 1.437 0 0 1 1.959-.589 1.446 1.446 0 0 1 .588 1.959 1.458 1.458 0 0 1-1.283.762 1.405 1.405 0 0 1-.675-.174Zm-36.812-3.711a1.45 1.45 0 0 1 .9-1.843 1.444 1.444 0 0 1 1.843.9 1.445 1.445 0 0 1-.9 1.833 1.351 1.351 0 0 1-.473.087 1.457 1.457 0 0 1-1.37-.977Zm30.193.83a1.443 1.443 0 0 1-.9-1.833 1.433 1.433 0 0 1 1.832-.907 1.456 1.456 0 0 1 .907 1.843 1.458 1.458 0 0 1-1.37.975 1.359 1.359 0 0 1-.47-.079Zm-23.026-2.9a1.444 1.444 0 0 1 1.187-1.668 1.442 1.442 0 0 1 1.659 1.186 1.445 1.445 0 0 1-1.187 1.669 1.918 1.918 0 0 1-.241.019 1.438 1.438 0 0 1-1.418-1.211Zm16.033 1.158h.009a1.447 1.447 0 0 1-1.2-1.659 1.438 1.438 0 0 1 1.66-1.2 1.443 1.443 0 0 1 1.2 1.659 1.455 1.455 0 0 1-1.427 1.216 2.27 2.27 0 0 1-.242-.021Zm-7.187-.569a1.445 1.445 0 0 1-1.447-1.447 1.445 1.445 0 0 1 1.447-1.447 1.437 1.437 0 0 1 1.447 1.438 1.459 1.459 0 0 1-1.447 1.456ZM113.945 151.959a1.573 1.573 0 0 1 1.573-1.572v.013h.048a.367.367 0 0 1 .1-.009 1.564 1.564 0 0 1 1.572 1.563 1.558 1.558 0 0 1-1.563 1.572h-.154a1.565 1.565 0 0 1-1.576-1.567Zm-5.826.849a1.575 1.575 0 0 1-1.234-1.843 1.563 1.563 0 0 1 1.843-1.235 1.57 1.57 0 0 1 1.234 1.843 1.567 1.567 0 0 1-1.534 1.264 1.719 1.719 0 0 1-.309-.029Zm13.11-1.264a1.56 1.56 0 0 1 1.225-1.842 1.561 1.561 0 0 1 1.843 1.225 1.557 1.557 0 0 1-1.226 1.843 1.159 1.159 0 0 1-.308.039 1.567 1.567 0 0 1-1.534-1.265Zm-20.229-.9a1.565 1.565 0 0 1-.849-2.045 1.576 1.576 0 0 1 2.055-.849 1.56 1.56 0 0 1 .839 2.045 1.553 1.553 0 0 1-1.447.974 1.451 1.451 0 0 1-.598-.122Zm27.126-.9a1.575 1.575 0 0 1 .839-2.055 1.566 1.566 0 0 1 2.055.839 1.566 1.566 0 0 1-.839 2.055 1.708 1.708 0 0 1-.608.125 1.579 1.579 0 0 1-1.447-.958Zm-33.685-2.6a1.576 1.576 0 0 1-.424-2.18 1.556 1.556 0 0 1 2.17-.425 1.557 1.557 0 0 1 .433 2.17 1.569 1.569 0 0 1-1.3.7 1.612 1.612 0 0 1-.88-.264Zm40.1-.512a1.577 1.577 0 0 1 .424-2.18 1.569 1.569 0 0 1 2.181.425 1.567 1.567 0 0 1-.425 2.17 1.546 1.546 0 0 1-.878.269 1.586 1.586 0 0 1-1.302-.682ZM88.7 142.429a1.57 1.57 0 0 1-.009-2.219 1.561 1.561 0 0 1 2.218 0 1.56 1.56 0 0 1 0 2.219 1.564 1.564 0 0 1-1.1.453 1.573 1.573 0 0 1-1.109-.453Zm51.531-.106a1.569 1.569 0 0 1-.009-2.219 1.567 1.567 0 0 1 2.218-.009 1.568 1.568 0 0 1 .01 2.219 1.581 1.581 0 0 1-1.119.463 1.584 1.584 0 0 1-1.099-.455Zm-56.257-5.643a1.567 1.567 0 0 1 .424-2.17 1.577 1.577 0 0 1 2.181.424 1.576 1.576 0 0 1-.425 2.18 1.627 1.627 0 0 1-.878.261 1.558 1.558 0 0 1-1.302-.696Zm61 .308a1.561 1.561 0 0 1-.445-2.171 1.572 1.572 0 0 1 2.17-.444 1.572 1.572 0 0 1 .445 2.171 1.561 1.561 0 0 1-1.312.7 1.538 1.538 0 0 1-.853-.257Zm-64.516-6.858a1.553 1.553 0 0 1 .839-2.045 1.566 1.566 0 0 1 2.055.839v.009a1.571 1.571 0 0 1-.849 2.045 1.647 1.647 0 0 1-.6.116 1.57 1.57 0 0 1-1.441-.965Zm68.123.7a1.557 1.557 0 0 1-.849-2.045 1.557 1.557 0 0 1 2.045-.849 1.565 1.565 0 0 1 .849 2.045h.009a1.575 1.575 0 0 1-1.456.974 1.516 1.516 0 0 1-.593-.122Zm-70.289-7.81v-.01a1.575 1.575 0 0 1 1.235-1.843 1.57 1.57 0 0 1 1.843 1.234 1.556 1.556 0 0 1-1.226 1.843 1.7 1.7 0 0 1-.308.029 1.578 1.578 0 0 1-1.544-1.253Zm72.639 1.07a1.566 1.566 0 0 1-1.244-1.832 1.563 1.563 0 0 1 1.842-1.235 1.561 1.561 0 0 1 1.235 1.833 1.566 1.566 0 0 1-1.534 1.273 1.049 1.049 0 0 1-.3-.039Zm-73.362-8.469a1.565 1.565 0 0 1 1.563-1.572 1.57 1.57 0 0 1 1.572 1.562 1.571 1.571 0 0 1-1.562 1.573 1.571 1.571 0 0 1-1.574-1.563Zm72.764-.154a1.557 1.557 0 0 1 1.563-1.572 1.577 1.577 0 0 1 1.572 1.563 1.571 1.571 0 0 1-1.563 1.572 1.565 1.565 0 0 1-1.573-1.563Zm-70.815-5.412a1.56 1.56 0 0 1-1.235-1.832 1.564 1.564 0 0 1 1.843-1.235 1.561 1.561 0 0 1 1.235 1.833 1.574 1.574 0 0 1-1.534 1.273 1.12 1.12 0 0 1-.31-.039Zm70.13-1.379a1.566 1.566 0 0 1 1.225-1.843 1.557 1.557 0 0 1 1.843 1.226h.009a1.585 1.585 0 0 1-1.234 1.852 1.724 1.724 0 0 1-.309.028 1.557 1.557 0 0 1-1.535-1.264Zm-68.365-5.528a1.569 1.569 0 0 1-.859-2.044 1.585 1.585 0 0 1 2.056-.859 1.588 1.588 0 0 1 .849 2.055 1.583 1.583 0 0 1-1.457.965 1.6 1.6 0 0 1-.589-.117Zm66.368-.983a1.563 1.563 0 0 1 .839-2.055 1.566 1.566 0 0 1 2.055.839A1.579 1.579 0 0 1 149.7 103a1.608 1.608 0 0 1-.6.116 1.561 1.561 0 0 1-1.45-.952Zm-63.292-5.452a1.587 1.587 0 0 1-.433-2.18 1.578 1.578 0 0 1 2.18-.434 1.579 1.579 0 0 1 .434 2.181 1.576 1.576 0 0 1-1.312.694 1.6 1.6 0 0 1-.869-.261Zm60.049-.559h.01a1.555 1.555 0 0 1 .414-2.171 1.568 1.568 0 0 1 2.18.425 1.567 1.567 0 0 1-.424 2.17 1.542 1.542 0 0 1-.878.27 1.571 1.571 0 0 1-1.301-.694ZM88.643 91a1.569 1.569 0 0 1 0-2.219 1.561 1.561 0 0 1 2.218 0 1.578 1.578 0 0 1 0 2.219 1.6 1.6 0 0 1-1.109.454A1.545 1.545 0 0 1 88.643 91Zm51.425-.106a1.57 1.57 0 0 1-.009-2.219 1.569 1.569 0 0 1 2.218-.01 1.568 1.568 0 0 1 .01 2.218 1.573 1.573 0 0 1-1.11.464 1.59 1.59 0 0 1-1.109-.447Zm-46.12-4.656a1.578 1.578 0 0 1 .424-2.181h.01a1.567 1.567 0 0 1 2.17.425 1.576 1.576 0 0 1-.425 2.18 1.627 1.627 0 0 1-.878.261 1.586 1.586 0 0 1-1.301-.685Zm40.834.337a1.565 1.565 0 0 1-.434-2.17 1.56 1.56 0 0 1 2.17-.434 1.569 1.569 0 0 1 .444 2.171 1.584 1.584 0 0 1-1.312.7 1.606 1.606 0 0 1-.868-.267Zm-34.7-3.993a1.556 1.556 0 0 1 .838-2.045 1.567 1.567 0 0 1 2.055.839 1.58 1.58 0 0 1-.85 2.055 1.6 1.6 0 0 1-.6.116 1.554 1.554 0 0 1-1.441-.965Zm28.678.79a1.556 1.556 0 0 1-.849-2.044 1.558 1.558 0 0 1 2.045-.85 1.565 1.565 0 0 1 .849 2.045 1.569 1.569 0 0 1-1.447.965 1.61 1.61 0 0 1-.596-.116Zm-21.955-3.163a1.575 1.575 0 0 1 1.235-1.843 1.561 1.561 0 0 1 1.842 1.225 1.569 1.569 0 0 1-1.234 1.852 1.562 1.562 0 0 1-.309.029 1.583 1.583 0 0 1-1.532-1.263Zm15.425 1.206a1.575 1.575 0 0 1-1.23-1.843 1.553 1.553 0 0 1 1.832-1.235h.01a1.56 1.56 0 0 1 1.234 1.833 1.565 1.565 0 0 1-1.534 1.273 1.7 1.7 0 0 1-.31-.028Zm-6.791-.646Zm-1.57-1.569a1.568 1.568 0 0 1 1.562-1.562A1.558 1.558 0 0 1 117 79.2a1.572 1.572 0 0 1-1.563 1.573 1.573 1.573 0 0 1-1.568-1.573ZM113.83 143.21a1.69 1.69 0 0 1 1.688-1.688h.105a1.688 1.688 0 0 1 1.688 1.679 1.678 1.678 0 0 1-1.679 1.7h-.115a1.684 1.684 0 0 1-1.687-1.691Zm-5.894.694a1.678 1.678 0 0 1-1.2-2.064 1.691 1.691 0 0 1 2.065-1.2 1.691 1.691 0 0 1 1.2 2.065 1.685 1.685 0 0 1-1.63 1.254 1.679 1.679 0 0 1-.435-.059Zm13.205-1.215a1.7 1.7 0 0 1 1.187-2.073 1.694 1.694 0 0 1 2.074 1.2 1.686 1.686 0 0 1-1.187 2.065 1.8 1.8 0 0 1-.444.058 1.689 1.689 0 0 1-1.63-1.25Zm-20.276-1.707a1.683 1.683 0 0 1-.617-2.306 1.677 1.677 0 0 1 2.305-.617 1.693 1.693 0 0 1 .617 2.305 1.7 1.7 0 0 1-1.466.839 1.631 1.631 0 0 1-.839-.221Zm27.1-.666a1.7 1.7 0 0 1 .608-2.315 1.705 1.705 0 0 1 2.315.608 1.7 1.7 0 0 1-.608 2.315 1.692 1.692 0 0 1-.849.222 1.7 1.7 0 0 1-1.469-.83ZM94.8 136.322a1.683 1.683 0 0 1 0-2.393 1.689 1.689 0 0 1 2.382 0 1.7 1.7 0 0 1 0 2.393 1.687 1.687 0 0 1-1.2.492 1.666 1.666 0 0 1-1.182-.492Zm39.136-.077a1.688 1.688 0 0 1-.01-2.382 1.692 1.692 0 0 1 2.393-.01 1.689 1.689 0 0 1 .009 2.383 1.694 1.694 0 0 1-1.206.5 1.681 1.681 0 0 1-1.189-.491Zm-43.8-5.99a1.683 1.683 0 0 1 .617-2.306 1.692 1.692 0 0 1 2.306.618 1.689 1.689 0 0 1-.618 2.305 1.7 1.7 0 0 1-.849.232 1.686 1.686 0 0 1-1.464-.849Zm48.531.53a1.693 1.693 0 0 1-.626-2.305 1.689 1.689 0 0 1 2.305-.627 1.69 1.69 0 0 1 .627 2.305 1.712 1.712 0 0 1-1.467.85 1.731 1.731 0 0 1-.847-.223ZM87.2 123.193a1.69 1.69 0 0 1 1.186-2.073 1.7 1.7 0 0 1 2.074 1.2 1.691 1.691 0 0 1-1.2 2.065 1.673 1.673 0 0 1-.434.057 1.679 1.679 0 0 1-1.626-1.249Zm54.609 1.081a1.676 1.676 0 0 1-1.2-2.055 1.68 1.68 0 0 1 2.064-1.206 1.687 1.687 0 0 1 1.2 2.064 1.68 1.68 0 0 1-1.631 1.254 1.673 1.673 0 0 1-.442-.057ZM86.193 115.6a1.69 1.69 0 0 1 1.688-1.688 1.69 1.69 0 0 1 1.688 1.688 1.684 1.684 0 0 1-1.688 1.688 1.69 1.69 0 0 1-1.688-1.688Zm55.274-.106a1.676 1.676 0 0 1 1.679-1.688 1.689 1.689 0 0 1 1.7 1.678 1.705 1.705 0 0 1-1.688 1.7 1.684 1.684 0 0 1-1.691-1.684Zm3.376-.01Zm-56.47-5.4a1.686 1.686 0 0 1-1.2-2.064 1.69 1.69 0 0 1 2.065-1.2 1.683 1.683 0 0 1 1.2 2.064 1.677 1.677 0 0 1-1.621 1.254 1.756 1.756 0 0 1-.445-.054Zm52.2-1.292a1.691 1.691 0 0 1 1.186-2.074 1.685 1.685 0 0 1 2.065 1.187 1.682 1.682 0 0 1-1.187 2.073 1.67 1.67 0 0 1-.434.058 1.679 1.679 0 0 1-1.633-1.245Zm-49.853-5.537a1.688 1.688 0 0 1-.618-2.305 1.679 1.679 0 0 1 2.306-.618 1.678 1.678 0 0 1 .617 2.306 1.681 1.681 0 0 1-1.467.839 1.677 1.677 0 0 1-.841-.223Zm47.238-.714a1.7 1.7 0 0 1 .608-2.305 1.7 1.7 0 0 1 2.315.608 1.7 1.7 0 0 1-.618 2.316 1.664 1.664 0 0 1-.839.221 1.69 1.69 0 0 1-1.468-.841Zm-43.2-5.276a1.693 1.693 0 0 1-.009-2.393 1.7 1.7 0 0 1 2.392 0 1.68 1.68 0 0 1 0 2.383 1.657 1.657 0 0 1-1.2.5 1.682 1.682 0 0 1-1.182-.491Zm39.059-.077a1.69 1.69 0 0 1-.009-2.392 1.7 1.7 0 0 1 2.392 0 1.688 1.688 0 0 1 .009 2.382 1.673 1.673 0 0 1-1.2.5 1.687 1.687 0 0 1-1.192-.492Zm-33.617-4.68a1.689 1.689 0 0 1 .608-2.306 1.692 1.692 0 0 1 2.315.618 1.69 1.69 0 0 1-.617 2.305 1.678 1.678 0 0 1-.849.232 1.7 1.7 0 0 1-1.457-.849Zm28.236.569a1.708 1.708 0 0 1-.617-2.316 1.694 1.694 0 0 1 2.305-.617 1.685 1.685 0 0 1 .617 2.305 1.687 1.687 0 0 1-1.466.849 1.8 1.8 0 0 1-.84-.221Zm-21.753-3.743a1.689 1.689 0 0 1 1.2-2.074 1.683 1.683 0 0 1 2.065 1.2 1.684 1.684 0 0 1-1.187 2.064 1.808 1.808 0 0 1-.444.058 1.688 1.688 0 0 1-1.635-1.248Zm15.5 1.158a1.685 1.685 0 0 1-1.206-2.065 1.691 1.691 0 0 1 2.065-1.2 1.693 1.693 0 0 1 1.206 2.065 1.7 1.7 0 0 1-1.64 1.254 1.594 1.594 0 0 1-.425-.054Zm-8.411-2.547a1.69 1.69 0 0 1 1.688-1.688 1.69 1.69 0 0 1 1.688 1.688 1.688 1.688 0 0 1-1.679 1.688 1.692 1.692 0 0 1-1.697-1.688ZM115.557 136.274h-.039a1.811 1.811 0 0 1-1.814-1.8 1.812 1.812 0 0 1 1.814-1.813h.067a1.8 1.8 0 0 1 1.813 1.8 1.808 1.808 0 0 1-1.794 1.814h-.048ZM107.6 134.7a1.8 1.8 0 0 1-.975-2.363 1.807 1.807 0 0 1 2.364-.975 1.806 1.806 0 0 1 .974 2.364 1.817 1.817 0 0 1-1.668 1.119 1.744 1.744 0 0 1-.695-.145Zm13.543-.993a1.813 1.813 0 0 1 .975-2.373 1.8 1.8 0 0 1 2.364.974 1.81 1.81 0 0 1-.965 2.364 1.849 1.849 0 0 1-.7.144 1.823 1.823 0 0 1-1.676-1.108Zm-20.258-3.492a1.812 1.812 0 0 1 0-2.557 1.823 1.823 0 0 1 2.566 0 1.81 1.81 0 0 1 0 2.557 1.8 1.8 0 0 1-1.283.53 1.8 1.8 0 0 1-1.284-.529Zm26.76-.048a1.811 1.811 0 0 1-.009-2.557 1.8 1.8 0 0 1 2.557-.01 1.8 1.8 0 0 1 .009 2.556 1.789 1.789 0 0 1-1.283.531 1.815 1.815 0 0 1-1.276-.519ZM96.4 123.512a1.8 1.8 0 0 1 .974-2.364 1.811 1.811 0 0 1 2.364.974 1.8 1.8 0 0 1-.974 2.364 1.788 1.788 0 0 1-.7.145 1.817 1.817 0 0 1-1.664-1.119Zm35.913.907a1.808 1.808 0 0 1-.993-2.354 1.818 1.818 0 0 1 2.363-.994 1.805 1.805 0 0 1 .984 2.364 1.818 1.818 0 0 1-1.667 1.118 1.711 1.711 0 0 1-.688-.134ZM94.817 115.6a1.811 1.811 0 0 1 1.813-1.813 1.808 1.808 0 0 1 1.8 1.8 1.8 1.8 0 0 1-1.8 1.813 1.809 1.809 0 0 1-1.813-1.8Zm37.775-.077a1.81 1.81 0 0 1 1.8-1.814 1.8 1.8 0 0 1 1.813 1.8 1.806 1.806 0 0 1-1.794 1.814 1.819 1.819 0 0 1-1.819-1.799Zm-35.228-5.479a1.815 1.815 0 0 1-.984-2.364 1.814 1.814 0 0 1 2.364-.984 1.814 1.814 0 0 1 .984 2.364 1.817 1.817 0 0 1-1.669 1.118 1.932 1.932 0 0 1-.696-.133Zm33.917-1.051a1.8 1.8 0 0 1 .974-2.364 1.8 1.8 0 0 1 2.363.974 1.809 1.809 0 0 1-.965 2.364 1.815 1.815 0 0 1-.7.145 1.817 1.817 0 0 1-1.673-1.118Zm-30.416-5.469a1.8 1.8 0 0 1-.009-2.557h.009a1.8 1.8 0 0 1 2.557-.009 1.812 1.812 0 0 1 0 2.557 1.818 1.818 0 0 1-1.283.54 1.825 1.825 0 0 1-1.274-.531Zm26.7-.058a1.8 1.8 0 0 1-.009-2.556 1.82 1.82 0 0 1 2.557-.01 1.824 1.824 0 0 1 .009 2.566 1.843 1.843 0 0 1-1.283.531 1.767 1.767 0 0 1-1.273-.531Zm-20.981-4.63a1.813 1.813 0 0 1 .975-2.373 1.808 1.808 0 0 1 2.363.974 1.811 1.811 0 0 1-.974 2.373 1.912 1.912 0 0 1-.694.136 1.809 1.809 0 0 1-1.669-1.11Zm15.434.946a1.806 1.806 0 0 1-.984-2.364 1.8 1.8 0 0 1 2.353-.984 1.8 1.8 0 0 1 .985 2.364 1.8 1.8 0 0 1-1.669 1.119 1.891 1.891 0 0 1-.684-.135Zm-8.354-3.087a1.81 1.81 0 0 1 1.8-1.813 1.809 1.809 0 0 1 1.813 1.8 1.8 1.8 0 0 1-1.8 1.813 1.816 1.816 0 0 1-1.812-1.8ZM115.537 127.65h-.019a1.929 1.929 0 0 1-1.929-1.929 1.926 1.926 0 0 1 1.852-1.929h.106a1.917 1.917 0 0 1 1.94 1.92 1.929 1.929 0 0 1-1.92 1.939h-.029Zm-7.775-2.826a1.918 1.918 0 0 1-.241-2.711 1.928 1.928 0 0 1 2.72-.241 1.938 1.938 0 0 1 .241 2.721 1.946 1.946 0 0 1-1.486.685 1.883 1.883 0 0 1-1.234-.454Zm12.83-.252a1.935 1.935 0 0 1 .221-2.72 1.926 1.926 0 0 1 2.721.221 1.936 1.936 0 0 1-.222 2.721 1.922 1.922 0 0 1-1.243.453 1.949 1.949 0 0 1-1.477-.675Zm-16.958-6.887a1.922 1.922 0 0 1 1.563-2.238 1.931 1.931 0 0 1 2.228 1.563 1.922 1.922 0 0 1-1.563 2.238 2.033 2.033 0 0 1-.337.029 1.921 1.921 0 0 1-1.891-1.592Zm21.55 1.524a1.925 1.925 0 0 1-1.572-2.228 1.92 1.92 0 0 1 2.228-1.573 1.921 1.921 0 0 1 1.572 2.229v-.01a1.932 1.932 0 0 1-1.9 1.611 2.019 2.019 0 0 1-.328-.029Zm-19.418-7.023a1.927 1.927 0 0 1-.714-2.633 1.925 1.925 0 0 1 2.634-.7 1.927 1.927 0 0 1 .713 2.634 1.941 1.941 0 0 1-1.678.965 1.891 1.891 0 0 1-.956-.266Zm16.852-.733a1.938 1.938 0 0 1 .694-2.643 1.943 1.943 0 0 1 2.643.7v.009a1.931 1.931 0 0 1-.694 2.633 1.893 1.893 0 0 1-.974.261 1.918 1.918 0 0 1-1.67-.96Zm-12.4-4.737a1.929 1.929 0 0 1 1.147-2.479 1.923 1.923 0 0 1 2.47 1.147 1.931 1.931 0 0 1-1.148 2.48 1.958 1.958 0 0 1-.656.116 1.919 1.919 0 0 1-1.809-1.263Zm8.084 1.129a1.928 1.928 0 0 1-1.158-2.469 1.928 1.928 0 0 1 2.47-1.148 1.921 1.921 0 0 1 1.157 2.47 1.928 1.928 0 0 1-1.813 1.273 1.8 1.8 0 0 1-.652-.126Z"/></svg>